<svg width="106" height="117" viewBox="0 0 106 117" fill="none" xmlns="http://www.w3.org/2000/svg">
<path d="M96.8591 35.7606L104.593 33.0404L99.6715 42.1453L92.484 44.6823L96.8591 35.7606Z" fill="#0D0D0D" stroke="#282828"/>
<mask id="path-2-inside-1_527_4959" fill="white">
<path d="M96.5025 35.3564L91.4984 45.5609C90.9573 44.1219 90.3261 42.7191 89.6084 41.3612C88.8969 40.0044 88.0998 38.6951 87.2221 37.4416C84.5739 33.6508 81.25 30.3915 77.4206 27.8305C76.1486 26.9756 74.8254 26.2011 73.4587 25.5113C72.0915 24.8212 70.6842 24.2156 69.2445 23.6977C67.7973 23.1816 66.3211 22.7532 64.8235 22.4148C64.1618 22.2644 63.4959 22.1348 62.826 22.022C62.156 21.9092 61.4902 21.8173 60.816 21.742C60.1419 21.6668 59.4719 21.6083 58.802 21.5707C58.132 21.5331 57.4538 21.5122 56.7797 21.5122C55.9277 21.5122 55.0758 21.5373 54.2238 21.5916C53.3719 21.6459 52.5241 21.7337 51.6804 21.8507C50.8367 21.9677 49.9931 22.1098 49.1535 22.2686C48.314 22.4274 47.4993 22.6447 46.6721 22.8787C43.7326 23.7055 40.9067 24.9001 38.2602 26.4348C36.9412 27.1977 35.6718 28.0449 34.4596 28.9713C33.2447 29.8971 32.0885 30.8992 30.998 31.9716L31.4861 20.7433C32.6597 19.5953 33.9028 18.5221 35.2081 17.5299C39.1435 14.5566 43.5919 12.3489 48.3264 11.0194C49.2114 10.7728 50.1089 10.5555 51.0063 10.3717C51.9037 10.1878 52.8094 10.0332 53.7193 9.90783C54.6291 9.78247 55.539 9.69472 56.4488 9.63622C57.3586 9.57772 58.2809 9.54846 59.1949 9.55264C59.9186 9.55264 60.6423 9.57771 61.3661 9.6195C62.0898 9.66129 62.8094 9.72397 63.5331 9.80337C64.2569 9.88276 64.9724 9.98723 65.692 10.1042C66.4116 10.2212 67.1229 10.3675 67.8342 10.5221C72.6585 11.6096 77.2457 13.5781 81.3702 16.3306C84.1122 18.1669 86.6206 20.3366 88.8391 22.7909C89.9396 24.0111 90.9658 25.2978 91.9119 26.6437C92.849 27.9961 93.7025 29.4056 94.4678 30.8642C95.2386 32.3199 95.9182 33.823 96.5025 35.3647"/>
</mask>
<path d="M96.5025 35.3564L91.4984 45.5609C90.9573 44.1219 90.3261 42.7191 89.6084 41.3612C88.8969 40.0044 88.0998 38.6951 87.2221 37.4416C84.5739 33.6508 81.25 30.3915 77.4206 27.8305C76.1486 26.9756 74.8254 26.2011 73.4587 25.5113C72.0915 24.8212 70.6842 24.2156 69.2445 23.6977C67.7973 23.1816 66.3211 22.7532 64.8235 22.4148C64.1618 22.2644 63.4959 22.1348 62.826 22.022C62.156 21.9092 61.4902 21.8173 60.816 21.742C60.1419 21.6668 59.4719 21.6083 58.802 21.5707C58.132 21.5331 57.4538 21.5122 56.7797 21.5122C55.9277 21.5122 55.0758 21.5373 54.2238 21.5916C53.3719 21.6459 52.5241 21.7337 51.6804 21.8507C50.8367 21.9677 49.9931 22.1098 49.1535 22.2686C48.314 22.4274 47.4993 22.6447 46.6721 22.8787C43.7326 23.7055 40.9067 24.9001 38.2602 26.4348C36.9412 27.1977 35.6718 28.0449 34.4596 28.9713C33.2447 29.8971 32.0885 30.8992 30.998 31.9716L31.4861 20.7433C32.6597 19.5953 33.9028 18.5221 35.2081 17.5299C39.1435 14.5566 43.5919 12.3489 48.3264 11.0194C49.2114 10.7728 50.1089 10.5555 51.0063 10.3717C51.9037 10.1878 52.8094 10.0332 53.7193 9.90783C54.6291 9.78247 55.539 9.69472 56.4488 9.63622C57.3586 9.57772 58.2809 9.54846 59.1949 9.55264C59.9186 9.55264 60.6423 9.57771 61.3661 9.6195C62.0898 9.66129 62.8094 9.72397 63.5331 9.80337C64.2569 9.88276 64.9724 9.98723 65.692 10.1042C66.4116 10.2212 67.1229 10.3675 67.8342 10.5221C72.6585 11.6096 77.2457 13.5781 81.3702 16.3306C84.1122 18.1669 86.6206 20.3366 88.8391 22.7909C89.9396 24.0111 90.9658 25.2978 91.9119 26.6437C92.849 27.9961 93.7025 29.4056 94.4678 30.8642C95.2386 32.3199 95.9182 33.823 96.5025 35.3647" fill="#0D0D0D"/>
<path d="M91.4984 45.5609L90.5623 45.9128L91.377 48.0796L92.3962 46.0012L91.4984 45.5609ZM89.6084 41.3612L88.7228 41.8257L88.7243 41.8285L89.6084 41.3612ZM87.2221 37.4416L86.4023 38.0143L86.4029 38.0151L87.2221 37.4416ZM77.4206 27.8305L76.8629 28.6605L76.8647 28.6617L77.4206 27.8305ZM73.4587 25.5113L73.9093 24.6185L73.9093 24.6185L73.4587 25.5113ZM69.2445 23.6977L69.5829 22.7567L69.5804 22.7558L69.2445 23.6977ZM64.8235 22.4148L64.6018 23.3899L64.6031 23.3902L64.8235 22.4148ZM46.6721 22.8787L46.9429 23.8413L46.9444 23.8409L46.6721 22.8787ZM38.2602 26.4348L38.7609 27.3004L38.7619 27.2998L38.2602 26.4348ZM34.4596 28.9713L35.0657 29.7666L35.0668 29.7658L34.4596 28.9713ZM30.998 31.9716L29.999 31.9282L29.8887 34.465L31.6992 32.6846L30.998 31.9716ZM31.4861 20.7433L30.7868 20.0284L30.5042 20.3049L30.487 20.6999L31.4861 20.7433ZM35.2081 17.5299L34.6053 16.732L34.603 16.7338L35.2081 17.5299ZM48.3264 11.0194L48.058 10.0561L48.056 10.0566L48.3264 11.0194ZM59.1949 9.55264L59.1903 10.5526H59.1949V9.55264ZM67.8342 10.5221L68.0541 9.54656L68.0466 9.54493L67.8342 10.5221ZM81.3702 16.3306L81.9266 15.4997L81.9253 15.4988L81.3702 16.3306ZM88.8391 22.7909L89.5817 22.1212L89.581 22.1203L88.8391 22.7909ZM91.9119 26.6437L92.7339 26.0742L92.73 26.0686L91.9119 26.6437ZM94.4678 30.8642L93.5822 31.3288L93.584 31.3322L94.4678 30.8642ZM95.6046 34.9161L90.6005 45.1206L92.3962 46.0012L97.4003 35.7967L95.6046 34.9161ZM92.4344 45.209C91.8785 43.7305 91.2299 42.2892 90.4925 40.894L88.7243 41.8285C89.4222 43.149 90.0362 44.5132 90.5623 45.9128L92.4344 45.209ZM90.494 40.8968C89.7627 39.5023 88.9434 38.1566 88.0413 36.868L86.4029 38.0151C87.2561 39.2337 88.031 40.5065 88.7228 41.8257L90.494 40.8968ZM88.0419 36.8689C85.3228 32.9766 81.9096 29.6296 77.9765 26.9992L76.8647 28.6617C80.5905 31.1534 83.825 34.3249 86.4023 38.0143L88.0419 36.8689ZM77.9784 27.0005C76.672 26.1225 75.313 25.327 73.9093 24.6185L73.0081 26.404C74.3378 27.0751 75.6251 27.8287 76.8629 28.6605L77.9784 27.0005ZM73.9093 24.6185C72.5058 23.9102 71.061 23.2884 69.5829 22.7567L68.906 24.6387C70.3074 25.1428 71.6772 25.7323 73.0081 26.404L73.9093 24.6185ZM69.5804 22.7558C68.0955 22.2263 66.5807 21.7867 65.0439 21.4394L64.6031 23.3902C66.0615 23.7198 67.4992 24.137 68.9086 24.6396L69.5804 22.7558ZM65.0452 21.4397C64.3631 21.2846 63.6786 21.1515 62.992 21.0359L62.6599 23.0081C63.3133 23.1182 63.9605 23.2441 64.6018 23.3899L65.0452 21.4397ZM62.992 21.0359C62.3026 20.9198 61.6183 20.8254 60.9269 20.7482L60.7051 22.7359C61.362 22.8092 62.0094 22.8986 62.6599 23.0081L62.992 21.0359ZM60.9269 20.7482C60.2371 20.6712 59.5486 20.6111 58.858 20.5723L58.7459 22.5691C59.3952 22.6056 60.0468 22.6624 60.7051 22.7359L60.9269 20.7482ZM58.858 20.5723C58.1712 20.5337 57.4742 20.5122 56.7797 20.5122V22.5122C57.4333 22.5122 58.0928 22.5325 58.7459 22.5691L58.858 20.5723ZM56.7797 20.5122C55.9081 20.5122 55.0349 20.5379 54.1602 20.5936L54.2875 22.5896C55.1167 22.5367 55.9473 22.5122 56.7797 22.5122V20.5122ZM54.1602 20.5936C53.282 20.6496 52.4096 20.74 51.543 20.8602L51.8178 22.8412C52.6385 22.7274 53.4617 22.6422 54.2875 22.5896L54.1602 20.5936ZM51.543 20.8602C50.6803 20.9798 49.8202 21.1247 48.9677 21.286L49.3394 23.2511C50.1659 23.0948 50.9932 22.9556 51.8178 22.8412L51.543 20.8602ZM48.9677 21.286C48.083 21.4533 47.2336 21.6806 46.3999 21.9164L46.9444 23.8409C47.7649 23.6088 48.5449 23.4014 49.3394 23.2511L48.9677 21.286ZM46.4014 21.916C43.3809 22.7656 40.4775 23.993 37.7586 25.5697L38.7619 27.2998C41.3359 25.8072 44.0842 24.6454 46.9429 23.8413L46.4014 21.916ZM37.7596 25.5691C36.4035 26.3535 35.0985 27.2245 33.8524 28.1767L35.0668 29.7658C36.245 28.8654 37.4789 28.0419 38.7609 27.3004L37.7596 25.5691ZM33.8534 28.1759C32.6051 29.1272 31.4173 30.1568 30.2969 31.2586L31.6992 32.6846C32.7598 31.6416 33.8842 30.667 35.0657 29.7666L33.8534 28.1759ZM31.9971 32.015L32.4851 20.7867L30.487 20.6999L29.999 31.9282L31.9971 32.015ZM32.1853 21.4582C33.3293 20.3392 34.541 19.2931 35.8133 18.326L34.603 16.7338C33.2646 17.7511 31.9901 18.8515 30.7868 20.0284L32.1853 21.4582ZM35.8109 18.3277C39.6471 15.4294 43.9828 13.2778 48.5968 11.9821L48.056 10.0566C43.2011 11.4199 38.64 13.6837 34.6053 16.732L35.8109 18.3277ZM48.5948 11.9827C49.4579 11.7423 50.3328 11.5304 51.207 11.3513L50.8056 9.39202C49.8849 9.58064 48.9649 9.80342 48.058 10.0561L48.5948 11.9827ZM51.207 11.3513C52.0828 11.1719 52.9671 11.0209 53.8558 10.8985L53.5828 8.91719C52.6517 9.04548 51.7246 9.20373 50.8056 9.39202L51.207 11.3513ZM53.8558 10.8985C54.7388 10.7768 55.6244 10.6913 56.513 10.6342L56.3846 8.63828C55.4535 8.69815 54.5194 8.78814 53.5828 8.91719L53.8558 10.8985ZM56.513 10.6342C57.4012 10.577 58.3005 10.5486 59.1903 10.5526L59.1994 8.55265C58.2613 8.54836 57.3161 8.57839 56.3846 8.63828L56.513 10.6342ZM59.1949 10.5526C59.8957 10.5526 60.5998 10.5769 61.3084 10.6178L61.4237 8.62116C60.6848 8.5785 59.9415 8.55264 59.1949 8.55264V10.5526ZM61.3084 10.6178C62.0128 10.6585 62.7151 10.7196 63.4241 10.7974L63.6422 8.80933C62.9037 8.72832 62.1668 8.66407 61.4237 8.62116L61.3084 10.6178ZM63.4241 10.7974C64.1248 10.8743 64.8219 10.9759 65.5315 11.0913L65.8524 9.1172C65.1228 8.99856 64.389 8.89126 63.6422 8.80933L63.4241 10.7974ZM65.5315 11.0913C66.2251 11.2041 66.9164 11.346 67.6218 11.4993L68.0466 9.54493C67.3293 9.38902 66.598 9.23842 65.8524 9.1172L65.5315 11.0913ZM67.6143 11.4976C72.3187 12.5581 76.7923 14.4777 80.8151 17.1623L81.9253 15.4988C77.6991 12.6784 72.9983 10.6612 68.0541 9.54659L67.6143 11.4976ZM80.8137 17.1614C83.4874 18.9521 85.9336 21.0679 88.0973 23.4615L89.581 22.1203C87.3076 19.6054 84.7369 17.3818 81.9266 15.4997L80.8137 17.1614ZM88.0965 23.4606C89.1699 24.6508 90.1709 25.9059 91.0938 27.2188L92.73 26.0686C91.7607 24.6897 90.7093 23.3714 89.5817 22.1212L88.0965 23.4606ZM91.09 27.2132C92.0036 28.5319 92.836 29.9064 93.5822 31.3288L95.3533 30.3997C94.5691 28.9048 93.6943 27.4603 92.7339 26.0742L91.09 27.2132ZM93.584 31.3322C94.3354 32.7511 94.9978 34.2163 95.5674 35.7191L97.4376 35.0103C96.8385 33.4298 96.1418 31.8887 95.3515 30.3963L93.584 31.3322Z" fill="#282828" mask="url(#path-2-inside-1_527_4959)"/>
<path d="M10.4835 27.1735L10.5289 16.3746L10.571 16.8974L10.5289 27.6619L10.4835 27.1735Z" fill="#0D0D0D" stroke="#282828"/>
<path d="M18.0327 33.8114L30.9194 21.9369L30.4893 31.7487L18.452 42.8844L18.0327 33.8114Z" fill="#0D0D0D" stroke="#282828"/>
<path d="M5.50474 43.8721L39.1606 43.9045L38.1997 52.6163L6.72927 52.6082L5.50474 43.8721Z" fill="#0D0D0D" stroke="#282828"/>
<mask id="path-7-inside-2_527_4959" fill="white">
<path d="M4.94624 43.3716L6.31099 53.1123C5.75773 53.1125 5.20882 53.0135 4.68983 52.8198C3.69219 52.4541 2.85246 51.7476 2.31598 50.8224C2.04756 50.3608 1.864 49.854 1.7742 49.3264L0.0703125 39.2974C0.166326 39.863 0.362455 40.4066 0.6493 40.902C0.935235 41.3903 1.30171 41.8256 1.73285 42.1891C2.63541 42.9466 3.7729 43.3593 4.94624 43.3549"/>
</mask>
<path d="M4.94624 43.3716L6.31099 53.1123C5.75773 53.1125 5.20882 53.0135 4.68983 52.8198C3.69219 52.4541 2.85246 51.7476 2.31598 50.8224C2.04756 50.3608 1.864 49.854 1.7742 49.3264L0.0703125 39.2974C0.166326 39.863 0.362455 40.4066 0.6493 40.902C0.935235 41.3903 1.30171 41.8256 1.73285 42.1891C2.63541 42.9466 3.7729 43.3593 4.94624 43.3549" fill="#0D0D0D"/>
<path d="M6.31099 53.1123L6.31141 54.1123L7.4608 54.1118L7.30132 52.9735L6.31099 53.1123ZM4.68983 52.8198L5.0395 51.8829L5.03396 51.8809L4.68983 52.8198ZM2.31598 50.8224L3.18106 50.3207L3.18043 50.3196L2.31598 50.8224ZM1.7742 49.3264L0.788322 49.4938L0.788375 49.4942L1.7742 49.3264ZM0.0703125 39.2974L1.05619 39.1299L-0.915587 39.4647L0.0703125 39.2974ZM0.6493 40.902L-0.216104 41.4031L-0.213631 41.4073L0.6493 40.902ZM1.73285 42.1891L1.08829 42.9536L1.08995 42.955L1.73285 42.1891ZM3.95591 43.5104L5.32067 53.251L7.30132 52.9735L5.93656 43.2329L3.95591 43.5104ZM6.31058 52.1123C5.87699 52.1125 5.44664 52.0349 5.03949 51.8829L4.34017 53.7567C4.97101 53.9921 5.63847 54.1126 6.31141 54.1123L6.31058 52.1123ZM5.03396 51.8809C4.2573 51.5962 3.60116 51.0452 3.18106 50.3207L1.45089 51.324C2.10375 52.4499 3.12707 53.3121 4.3457 53.7587L5.03396 51.8809ZM3.18043 50.3196C2.97233 49.9618 2.82978 49.5684 2.76001 49.1585L0.788375 49.4942C0.898224 50.1395 1.1228 50.7598 1.45152 51.3251L3.18043 50.3196ZM2.76007 49.1589L1.05619 39.1299L-0.91556 39.4649L0.788322 49.4938L2.76007 49.1589ZM-0.915587 39.4647C-0.799671 40.1476 -0.562827 40.8043 -0.216094 41.4031L1.51469 40.4009C1.28774 40.0089 1.13232 39.5784 1.05621 39.13L-0.915587 39.4647ZM-0.213631 41.4073C0.129614 41.9935 0.569834 42.5165 1.08829 42.9536L2.37741 41.4245C2.03358 41.1346 1.74086 40.7871 1.51223 40.3967L-0.213631 41.4073ZM1.08995 42.955C2.17277 43.8639 3.5391 44.3602 4.94998 44.3549L4.9425 42.3549C4.00671 42.3584 3.09806 42.0294 2.37574 41.4231L1.08995 42.955Z" fill="#282828" mask="url(#path-7-inside-2_527_4959)"/>
<path d="M59.076 0.500314H59.0778C59.9686 0.500314 60.8593 0.529211 61.7502 0.587015L61.7501 0.587036L61.7548 0.587293C62.6456 0.636844 63.5379 0.715369 64.4276 0.814797C65.3144 0.913904 66.2027 1.04208 67.0927 1.19128C67.9807 1.34013 68.8606 1.5138 69.7365 1.71232L69.7375 1.71254C71.7229 2.15833 73.6795 2.72615 75.5965 3.41285L75.5967 3.41292C79.4179 4.78011 83.0601 6.61255 86.4429 8.86982L86.443 8.86987C91.5252 12.2596 95.9436 16.5698 99.4754 21.5832C100.641 23.2411 101.703 24.9707 102.656 26.7618L102.656 26.7621C103.533 28.4084 104.315 30.1047 104.997 31.8424L96.7927 34.7243C96.2416 33.325 95.6124 31.9581 94.9082 30.6303C94.1289 29.1591 93.2605 27.7378 92.3082 26.3744L92.3073 26.3732C91.3496 25.0107 90.3108 23.7083 89.1968 22.473L89.1964 22.4726C86.9505 19.988 84.4109 17.7914 81.6348 15.9321L81.634 15.9316C77.4545 13.1431 72.8066 11.1475 67.9184 10.043L67.9171 10.0428C67.197 9.88201 66.4741 9.74099 65.7483 9.6197L65.7461 9.61935C65.0212 9.50148 64.2927 9.39564 63.5619 9.31502C62.8345 9.23476 62.1021 9.1713 61.3688 9.12897C60.6375 9.08674 59.904 9.06127 59.1688 9.06127C58.2458 9.06127 57.3169 9.0866 56.3908 9.14587C55.4646 9.20516 54.5433 9.29827 53.6269 9.42089C52.7095 9.54363 51.7876 9.70029 50.8777 9.89094C49.9673 10.0817 49.0593 10.3143 48.1747 10.5441L48.1746 10.544L48.1649 10.5467C46.564 10.9974 44.992 11.5471 43.458 12.1927C38.8695 14.1157 34.6821 16.8968 31.1156 20.3894L17.1717 33.2381L16.2324 34.1036L17.5096 34.1058L39.1633 34.1425L39.2041 42.9086L4.94695 42.8715H4.94606C4.34843 42.8719 3.75636 42.7544 3.20305 42.5254C2.67561 42.3044 2.19522 41.982 1.78853 41.576L1.78516 41.5727C1.37439 41.1702 1.04848 40.6874 0.827488 40.1533C0.606491 39.6192 0.495088 39.0451 0.500167 38.4659L0.500172 38.4651L0.744669 5.02382L9.59723 5.06137L9.50017 27.1976L9.49516 28.3405L10.3379 27.5685L24.9078 14.2215L24.9134 14.2164L24.9188 14.2111C26.3673 12.8011 27.9023 11.4849 29.5147 10.2702C32.7381 7.84772 36.2455 5.83749 39.9571 4.28523C41.8247 3.5051 43.7386 2.84345 45.6876 2.30414L45.6891 2.30372C46.7823 1.99758 47.8875 1.72877 48.9963 1.50137C50.1052 1.27399 51.219 1.08775 52.3423 0.934487C53.4623 0.781674 54.5832 0.674165 55.7135 0.603818C56.8456 0.533363 57.947 0.496178 59.076 0.500314Z" fill="url(#paint0_linear_527_4959)" stroke="#282828"/>
<path d="M8.79033 65.3561L1.05667 68.0763L5.97796 58.9714L13.1654 56.4344L8.79033 65.3561Z" fill="#0D0D0D" stroke="#282828"/>
<mask id="path-11-inside-3_527_4959" fill="white">
<path d="M9.14693 65.7598L14.151 55.5553C14.6921 56.9944 15.3233 58.3971 16.041 59.755C16.7526 61.1118 17.5496 62.4211 18.4273 63.6746C21.0755 67.4655 24.3994 70.7247 28.2288 73.2857C29.5009 74.1406 30.824 74.9151 32.1907 75.6049C33.5579 76.295 34.9652 76.9006 36.405 77.4185C37.8521 77.9346 39.3283 78.363 40.8259 78.7014C41.4876 78.8518 42.1535 78.9814 42.8235 79.0942C43.4934 79.207 44.1593 79.2989 44.8334 79.3742C45.5075 79.4494 46.1775 79.5079 46.8475 79.5455C47.5174 79.5831 48.1957 79.604 48.8698 79.604C49.7217 79.604 50.5736 79.5789 51.4256 79.5246C52.2775 79.4703 53.1253 79.3825 53.969 79.2655C54.8127 79.1485 55.6564 79.0064 56.4959 78.8477C57.3354 78.6889 58.1501 78.4716 58.9773 78.2375C61.9168 77.4107 64.7427 76.2161 67.3892 74.6814C68.7082 73.9185 69.9777 73.0713 71.1898 72.1449C72.4047 71.2191 73.5609 70.217 74.6514 69.1446L74.1634 80.3729C72.9897 81.5209 71.7466 82.5941 70.4413 83.5863C66.5059 86.5596 62.0575 88.7673 57.323 90.0968C56.438 90.3434 55.5406 90.5607 54.6431 90.7445C53.7457 90.9284 52.84 91.083 51.9301 91.2084C51.0203 91.3337 50.1105 91.4215 49.2006 91.48C48.2908 91.5385 47.3685 91.5678 46.4546 91.5636C45.7308 91.5636 45.0071 91.5385 44.2834 91.4967C43.5596 91.4549 42.84 91.3922 42.1163 91.3128C41.3925 91.2334 40.6771 91.129 39.9575 91.012C39.2379 90.895 38.5265 90.7487 37.8152 90.5941C32.9909 89.5066 28.4037 87.5381 24.2793 84.7856C21.5372 82.9493 19.0288 80.7796 16.8103 78.3253C15.7098 77.1051 14.6836 75.8184 13.7375 74.4725C12.8005 73.1201 11.9469 71.7106 11.1817 70.252C10.4108 68.7963 9.73125 67.2932 9.14693 65.7515"/>
</mask>
<path d="M9.14693 65.7598L14.151 55.5553C14.6921 56.9944 15.3233 58.3971 16.041 59.755C16.7526 61.1118 17.5496 62.4211 18.4273 63.6746C21.0755 67.4655 24.3994 70.7247 28.2288 73.2857C29.5009 74.1406 30.824 74.9151 32.1907 75.6049C33.5579 76.295 34.9652 76.9006 36.405 77.4185C37.8521 77.9346 39.3283 78.363 40.8259 78.7014C41.4876 78.8518 42.1535 78.9814 42.8235 79.0942C43.4934 79.207 44.1593 79.2989 44.8334 79.3742C45.5075 79.4494 46.1775 79.5079 46.8475 79.5455C47.5174 79.5831 48.1957 79.604 48.8698 79.604C49.7217 79.604 50.5736 79.5789 51.4256 79.5246C52.2775 79.4703 53.1253 79.3825 53.969 79.2655C54.8127 79.1485 55.6564 79.0064 56.4959 78.8477C57.3354 78.6889 58.1501 78.4716 58.9773 78.2375C61.9168 77.4107 64.7427 76.2161 67.3892 74.6814C68.7082 73.9185 69.9777 73.0713 71.1898 72.1449C72.4047 71.2191 73.5609 70.217 74.6514 69.1446L74.1634 80.3729C72.9897 81.5209 71.7466 82.5941 70.4413 83.5863C66.5059 86.5596 62.0575 88.7673 57.323 90.0968C56.438 90.3434 55.5406 90.5607 54.6431 90.7445C53.7457 90.9284 52.84 91.083 51.9301 91.2084C51.0203 91.3337 50.1105 91.4215 49.2006 91.48C48.2908 91.5385 47.3685 91.5678 46.4546 91.5636C45.7308 91.5636 45.0071 91.5385 44.2834 91.4967C43.5596 91.4549 42.84 91.3922 42.1163 91.3128C41.3925 91.2334 40.6771 91.129 39.9575 91.012C39.2379 90.895 38.5265 90.7487 37.8152 90.5941C32.9909 89.5066 28.4037 87.5381 24.2793 84.7856C21.5372 82.9493 19.0288 80.7796 16.8103 78.3253C15.7098 77.1051 14.6836 75.8184 13.7375 74.4725C12.8005 73.1201 11.9469 71.7106 11.1817 70.252C10.4108 68.7963 9.73125 67.2932 9.14693 65.7515" fill="#0D0D0D"/>
<path d="M14.151 55.5553L15.0871 55.2034L14.2724 53.0366L13.2532 55.115L14.151 55.5553ZM16.041 59.755L16.9267 59.2905L16.9251 59.2877L16.041 59.755ZM18.4273 63.6746L19.2471 63.1019L19.2465 63.1011L18.4273 63.6746ZM28.2288 73.2857L28.7866 72.4557L28.7847 72.4545L28.2288 73.2857ZM32.1907 75.6049L31.7401 76.4977L31.7402 76.4977L32.1907 75.6049ZM36.405 77.4185L36.0665 78.3595L36.0691 78.3604L36.405 77.4185ZM40.8259 78.7014L41.0476 77.7263L41.0463 77.726L40.8259 78.7014ZM58.9773 78.2375L58.7065 77.2749L58.705 77.2753L58.9773 78.2375ZM67.3892 74.6814L66.8885 73.8158L66.8875 73.8164L67.3892 74.6814ZM71.1898 72.1449L70.5837 71.3496L70.5826 71.3504L71.1898 72.1449ZM74.6514 69.1446L75.6504 69.188L75.7607 66.6512L73.9502 68.4316L74.6514 69.1446ZM74.1634 80.3729L74.8626 81.0878L75.1452 80.8113L75.1624 80.4163L74.1634 80.3729ZM70.4413 83.5863L71.0441 84.3842L71.0464 84.3825L70.4413 83.5863ZM57.323 90.0968L57.5914 91.0602L57.5934 91.0596L57.323 90.0968ZM46.4546 91.5636L46.4591 90.5636H46.4546V91.5636ZM37.8152 90.5941L37.5953 91.5696L37.6028 91.5713L37.8152 90.5941ZM24.2793 84.7856L23.7228 85.6165L23.7242 85.6174L24.2793 84.7856ZM16.8103 78.3253L16.0677 78.995L16.0684 78.9959L16.8103 78.3253ZM13.7375 74.4725L12.9155 75.042L12.9194 75.0476L13.7375 74.4725ZM11.1817 70.252L12.0672 69.7874L12.0654 69.784L11.1817 70.252ZM10.0448 66.2001L15.0489 55.9956L13.2532 55.115L8.24907 65.3195L10.0448 66.2001ZM13.215 55.9072C13.7709 57.3857 14.4195 58.827 15.1569 60.2222L16.9251 59.2877C16.2272 57.9672 15.6133 56.603 15.0871 55.2034L13.215 55.9072ZM15.1554 60.2194C15.8867 61.6139 16.706 62.9596 17.6081 64.2482L19.2465 63.1011C18.3933 61.8825 17.6184 60.6097 16.9267 59.2906L15.1554 60.2194ZM17.6075 64.2473C20.3266 68.1396 23.7398 71.4867 27.6729 74.117L28.7847 72.4545C25.0589 69.9628 21.8245 66.7913 19.2471 63.1019L17.6075 64.2473ZM27.671 74.1157C28.9775 74.9937 30.3364 75.7892 31.7401 76.4977L32.6413 74.7122C31.3117 74.0411 30.0243 73.2875 28.7865 72.4557L27.671 74.1157ZM31.7402 76.4977C33.1436 77.206 34.5884 77.8278 36.0665 78.3595L36.7434 76.4775C35.3421 75.9734 33.9722 75.3839 32.6413 74.7122L31.7402 76.4977ZM36.0691 78.3604C37.5539 78.89 39.0688 79.3295 40.6055 79.6768L41.0463 77.726C39.5879 77.3964 38.1502 76.9792 36.7409 76.4766L36.0691 78.3604ZM40.6042 79.6765C41.2863 79.8316 41.9708 79.9647 42.6574 80.0803L42.9895 78.1081C42.3361 77.998 41.689 77.8721 41.0476 77.7263L40.6042 79.6765ZM42.6574 80.0803C43.3468 80.1964 44.0311 80.2909 44.7225 80.368L44.9443 78.3803C44.2874 78.307 43.64 78.2176 42.9895 78.1081L42.6574 80.0803ZM44.7225 80.368C45.4123 80.445 46.1008 80.5052 46.7914 80.5439L46.9035 78.5471C46.2542 78.5106 45.6026 78.4538 44.9443 78.3803L44.7225 80.368ZM46.7914 80.5439C47.4782 80.5825 48.1752 80.604 48.8698 80.604V78.604C48.2161 78.604 47.5567 78.5837 46.9035 78.5471L46.7914 80.5439ZM48.8698 80.604C49.7413 80.604 50.6145 80.5784 51.4892 80.5226L51.362 78.5266C50.5328 78.5795 49.7021 78.604 48.8698 78.604V80.604ZM51.4892 80.5226C52.3674 80.4666 53.2398 80.3762 54.1064 80.256L53.8316 78.275C53.0109 78.3888 52.1877 78.474 51.362 78.5266L51.4892 80.5226ZM54.1064 80.256C54.9691 80.1364 55.8292 79.9915 56.6817 79.8302L56.31 77.8651C55.4835 78.0214 54.6563 78.1606 53.8316 78.275L54.1064 80.256ZM56.6817 79.8302C57.5664 79.6629 58.4158 79.4357 59.2495 79.1998L58.705 77.2753C57.8845 77.5075 57.1045 77.7148 56.31 77.8651L56.6817 79.8302ZM59.248 79.2002C62.2685 78.3506 65.1719 77.1232 67.8908 75.5465L66.8875 73.8164C64.3135 75.309 61.5652 76.4708 58.7065 77.2749L59.248 79.2002ZM67.8899 75.5471C69.2459 74.7627 70.551 73.8918 71.797 72.9395L70.5826 71.3504C69.4044 72.2508 68.1705 73.0743 66.8885 73.8158L67.8899 75.5471ZM71.796 72.9403C73.0443 71.989 74.2322 70.9594 75.3525 69.8576L73.9502 68.4316C72.8896 69.4746 71.7652 70.4492 70.5837 71.3496L71.796 72.9403ZM73.6523 69.1012L73.1643 80.3295L75.1624 80.4163L75.6504 69.188L73.6523 69.1012ZM73.4641 79.658C72.3201 80.7771 71.1084 81.8231 69.8361 82.7902L71.0464 84.3825C72.3849 83.3651 73.6594 82.2647 74.8626 81.0878L73.4641 79.658ZM69.8385 82.7885C66.0023 85.6868 61.6666 87.8384 57.0527 89.1341L57.5934 91.0596C62.4483 89.6963 67.0095 87.4325 71.0441 84.3842L69.8385 82.7885ZM57.0547 89.1335C56.1915 89.374 55.3166 89.5858 54.4424 89.7649L54.8438 91.7242C55.7645 91.5356 56.6845 91.3128 57.5914 91.0601L57.0547 89.1335ZM54.4424 89.7649C53.5666 89.9443 52.6823 90.0953 51.7937 90.2177L52.0666 92.199C52.9977 92.0707 53.9248 91.9125 54.8438 91.7242L54.4424 89.7649ZM51.7937 90.2177C50.9106 90.3394 50.025 90.4249 49.1364 90.4821L49.2648 92.4779C50.1959 92.4181 51.13 92.3281 52.0666 92.199L51.7937 90.2177ZM49.1364 90.4821C48.2482 90.5392 47.349 90.5677 46.4591 90.5636L46.45 92.5636C47.3881 92.5679 48.3333 92.5378 49.2648 92.4779L49.1364 90.4821ZM46.4546 90.5636C45.7537 90.5636 45.0496 90.5393 44.341 90.4984L44.2257 92.495C44.9646 92.5377 45.7079 92.5636 46.4546 92.5636V90.5636ZM44.341 90.4984C43.6367 90.4577 42.9343 90.3966 42.2253 90.3188L42.0072 92.3069C42.7457 92.3879 43.4826 92.4521 44.2257 92.495L44.341 90.4984ZM42.2253 90.3188C41.5246 90.2419 40.8275 90.1403 40.1179 90.0249L39.797 91.999C40.5266 92.1177 41.2604 92.225 42.0072 92.3069L42.2253 90.3188ZM40.1179 90.0249C39.4243 89.9121 38.733 89.7702 38.0276 89.6169L37.6028 91.5713C38.3201 91.7272 39.0514 91.8778 39.797 91.999L40.1179 90.0249ZM38.0351 89.6186C33.3308 88.5581 28.8571 86.6385 24.8343 83.9539L23.7242 85.6174C27.9503 88.4378 32.6511 90.4551 37.5953 91.5696L38.0351 89.6186ZM24.8357 83.9548C22.162 82.1641 19.7158 80.0483 17.5521 77.6547L16.0684 78.9959C18.3418 81.5108 20.9125 83.7344 23.7228 85.6165L24.8357 83.9548ZM17.5529 77.6556C16.4795 76.4654 15.4785 75.2103 14.5556 73.8974L12.9194 75.0476C13.8887 76.4265 14.9401 77.7448 16.0677 78.995L17.5529 77.6556ZM14.5595 73.903C13.6458 72.5843 12.8134 71.2098 12.0672 69.7874L10.2961 70.7166C11.0804 72.2114 11.9551 73.6559 12.9155 75.042L14.5595 73.903ZM12.0654 69.784C11.314 68.3651 10.6516 66.8999 10.082 65.3971L8.21183 66.1059C8.81088 67.6865 9.5076 69.2275 10.2979 70.72L12.0654 69.784Z" fill="#282828" mask="url(#path-11-inside-3_527_4959)"/>
<path d="M95.1659 73.943L95.1205 84.7418L95.0784 84.2191L95.1205 73.4545L95.1659 73.943Z" fill="#0D0D0D" stroke="#282828"/>
<path d="M87.6167 67.3051L74.73 79.1796L75.1601 69.3677L87.1974 58.2321L87.6167 67.3051Z" fill="#0D0D0D" stroke="#282828"/>
<path d="M100.145 57.2443L66.4888 57.212L67.4497 48.5002L98.9201 48.5083L100.145 57.2443Z" fill="#0D0D0D" stroke="#282828"/>
<mask id="path-16-inside-4_527_4959" fill="white">
<path d="M100.703 57.7451L99.3384 48.0044C99.8917 48.0042 100.441 48.1032 100.96 48.2969C101.957 48.6626 102.797 49.3691 103.333 50.2943C103.602 50.7559 103.785 51.2627 103.875 51.7903L105.579 61.8193C105.483 61.2537 105.287 60.7101 105 60.2147C104.714 59.7264 104.348 59.2911 103.917 58.9276C103.014 58.1701 101.877 57.7574 100.703 57.7618"/>
</mask>
<path d="M100.703 57.7451L99.3384 48.0044C99.8917 48.0042 100.441 48.1032 100.96 48.2969C101.957 48.6626 102.797 49.3691 103.333 50.2943C103.602 50.7559 103.785 51.2627 103.875 51.7903L105.579 61.8193C105.483 61.2537 105.287 60.7101 105 60.2147C104.714 59.7264 104.348 59.2911 103.917 58.9276C103.014 58.1701 101.877 57.7574 100.703 57.7618" fill="#0D0D0D"/>
<path d="M99.3384 48.0044L99.338 47.0044L98.1886 47.0049L98.3481 48.1432L99.3384 48.0044ZM100.96 48.2969L100.61 49.2338L100.615 49.2358L100.96 48.2969ZM103.333 50.2943L102.468 50.796L102.469 50.7971L103.333 50.2943ZM103.875 51.7903L104.861 51.6229L104.861 51.6225L103.875 51.7903ZM105.579 61.8193L104.593 61.9868L106.565 61.652L105.579 61.8193ZM105 60.2147L105.866 59.7136L105.863 59.7094L105 60.2147ZM103.917 58.9276L104.561 58.1631L104.559 58.1617L103.917 58.9276ZM101.694 57.6063L100.329 47.8657L98.3481 48.1432L99.7128 57.8838L101.694 57.6063ZM99.3388 49.0044C99.7724 49.0042 100.203 49.0818 100.61 49.2338L101.309 47.36C100.678 47.1246 100.011 47.0041 99.338 47.0044L99.3388 49.0044ZM100.615 49.2358C101.392 49.5205 102.048 50.0715 102.468 50.796L104.199 49.7927C103.546 48.6668 102.522 47.8046 101.304 47.358L100.615 49.2358ZM102.469 50.7971C102.677 51.1549 102.82 51.5483 102.889 51.9582L104.861 51.6225C104.751 50.9772 104.527 50.3569 104.198 49.7916L102.469 50.7971ZM102.889 51.9578L104.593 61.9868L106.565 61.6518L104.861 51.6229L102.889 51.9578ZM106.565 61.652C106.449 60.9691 106.212 60.3124 105.866 59.7136L104.135 60.7158C104.362 61.1078 104.517 61.5383 104.593 61.9867L106.565 61.652ZM105.863 59.7094C105.52 59.1232 105.08 58.6002 104.561 58.1631L103.272 59.6922C103.616 59.9821 103.909 60.3296 104.137 60.72L105.863 59.7094ZM104.559 58.1617C103.477 57.2528 102.11 56.7565 100.699 56.7618L100.707 58.7618C101.643 58.7583 102.551 59.0873 103.274 59.6936L104.559 58.1617Z" fill="#282828" mask="url(#path-16-inside-4_527_4959)"/>
<path d="M46.5734 100.616H46.5716C45.6808 100.616 44.7901 100.587 43.8993 100.529L43.8993 100.529L43.8947 100.529C43.0038 100.48 42.1116 100.401 41.2218 100.302C40.335 100.203 39.4467 100.074 38.5567 99.9252C37.6687 99.7763 36.7888 99.6027 35.9129 99.4041L35.9119 99.4039C33.9265 98.9581 31.9699 98.3903 30.0529 97.7036L30.0527 97.7035C26.2316 96.3363 22.5893 94.5039 19.2065 92.2466L19.2064 92.2466C14.1242 88.8568 9.70577 84.5467 6.17397 79.5333C5.00858 77.8753 3.94628 76.1458 2.99322 74.3546L2.9931 74.3544C2.11604 72.7081 1.3345 71.0118 0.652405 69.2741L8.8567 66.3921C9.40786 67.7915 10.037 69.1584 10.7412 70.4862C11.5205 71.9574 12.3889 73.3787 13.3412 74.7421L13.3421 74.7433C14.2998 76.1057 15.3386 77.4082 16.4526 78.6434L16.453 78.6438C18.6989 81.1285 21.2385 83.3251 24.0147 85.1843L24.0154 85.1848C28.1949 87.9734 32.8428 89.9689 37.7311 91.0734L37.7323 91.0737C38.4524 91.2344 39.1753 91.3755 39.9011 91.4968L39.9033 91.4971C40.6282 91.615 41.3568 91.7208 42.0875 91.8014C42.8149 91.8817 43.5473 91.9452 44.2806 91.9875C45.0119 92.0297 45.7454 92.0552 46.4806 92.0552C47.4036 92.0552 48.3325 92.0299 49.2586 91.9706C50.1848 91.9113 51.1061 91.8182 52.0225 91.6956C52.9399 91.5728 53.8618 91.4162 54.7717 91.2255C55.6821 91.0347 56.5901 90.8021 57.4747 90.5724L57.4748 90.5725L57.4846 90.5697C59.0854 90.119 60.6574 89.5693 62.1915 88.9238C66.7799 87.0007 70.9673 84.2197 74.5338 80.727L88.4777 67.8784L89.4171 67.0128L88.1398 67.0107L66.4861 66.9739L66.4453 58.2079L100.702 58.245H100.703C101.301 58.2445 101.893 58.362 102.446 58.591C102.974 58.8121 103.454 59.1344 103.861 59.5405L103.864 59.5438C104.275 59.9462 104.601 60.4291 104.822 60.9632C105.043 61.4973 105.154 62.0714 105.149 62.6506L105.149 62.6513L104.905 96.0926L96.0522 96.0551L96.1492 73.9189L96.1543 72.776L95.3115 73.548L80.7416 86.8949L80.736 86.9L80.7306 86.9053C79.2821 88.3153 77.7471 89.6316 76.1347 90.8462C72.9113 93.2687 69.4039 95.279 65.6923 96.8312C63.8247 97.6114 61.9109 98.273 59.9618 98.8123L59.9603 98.8127C58.8671 99.1189 57.762 99.3877 56.6531 99.6151C55.5443 99.8425 54.4304 100.029 53.3071 100.182C52.1872 100.335 51.0662 100.442 49.9359 100.513C48.8039 100.583 47.7024 100.62 46.5734 100.616Z" fill="url(#paint1_linear_527_4959)" stroke="#282828"/>
<mask id="path-19-outside-5_527_4959" maskUnits="userSpaceOnUse" x="6" y="82.4399" width="94" height="34" fill="black">
<rect fill="white" x="6" y="82.4399" width="94" height="34"/>
<path fill-rule="evenodd" clip-rule="evenodd" d="M9 108.463L14.7591 102.108L16.241 103.746C16.9914 104.576 17.764 105.138 18.5509 105.489C19.4178 105.865 20.2608 106.04 21.0939 106.04C22.1287 106.04 22.5708 105.806 22.7443 105.657C22.8765 105.544 23.0539 105.328 23.0539 104.692C23.0539 104.443 23.0165 104.31 22.9944 104.253C22.9769 104.209 22.9648 104.198 22.9551 104.19L22.9372 104.175L22.9201 104.159C22.8575 104.102 22.4722 103.854 21.3599 103.68L21.3527 103.679L18.7063 103.244C16.1625 102.811 13.9986 101.822 12.5784 100.03L12.5728 100.023L12.5672 100.016C11.2521 98.325 10.6339 96.3059 10.6339 94.0719C10.6339 91.1732 11.6054 88.6931 13.7227 86.9252C15.7828 85.1807 18.5206 84.4399 21.6699 84.4399C23.8151 84.4399 25.7794 84.7706 27.5151 85.4938C28.6305 85.9585 29.6358 86.5478 30.5126 87.2702L30.3648 84.8719H39.0424L39.3042 90.3439H46.669L46.9284 84.8719H55.4268L54.3346 102.601L59.1353 84.8719H69.8282L76.0037 107.679V84.8719H87.7237C89.1484 84.8719 90.4923 85.0944 91.7221 85.5829C92.9347 86.0407 93.995 86.7277 94.863 87.6558C95.7476 88.5759 96.3947 89.6707 96.8164 90.9057C97.2348 92.1309 97.4277 93.4581 97.4277 94.8639C97.4277 96.2698 97.2348 97.597 96.8164 98.8222C96.3947 100.057 95.7476 101.152 94.8631 102.072C93.9994 102.996 92.9463 103.691 91.7425 104.173L91.7223 104.181L91.702 104.189C90.4785 104.647 89.1422 104.856 87.7237 104.856H85.4397V114H67.7981L66.2141 107.952H62.4343L60.8863 114H43.1593L42.8958 112.011L42.6324 114H32.1592L31.802 108.201C31.7907 108.229 31.7793 108.258 31.7678 108.286L31.7646 108.294L31.7614 108.302C31.2368 109.567 30.4501 110.672 29.4254 111.606L29.4133 111.617L29.4011 111.628C28.3585 112.548 27.1107 113.232 25.7035 113.712C24.2697 114.208 22.6607 114.432 20.9139 114.432C18.5857 114.432 16.4605 114.048 14.591 113.214C12.7726 112.403 11.2449 111.269 10.0641 109.793L9 108.463ZM31.2567 99.3502L30.8129 92.1447L27.3131 96.0562C28.4679 96.556 29.4853 97.2414 30.328 98.1391C30.6832 98.5174 30.992 98.9221 31.2567 99.3502ZM26.9048 95.8894L25.6937 94.5485C25.2074 94.0101 24.6425 93.5996 23.9852 93.3056L23.9653 93.2967L23.9457 93.2874C23.3368 92.999 22.6037 92.8319 21.7059 92.8319C20.7172 92.8319 20.3473 93.0431 20.2487 93.1241C20.2479 93.1248 20.247 93.1255 20.2459 93.1263C20.2151 93.1508 20.0699 93.266 20.0699 93.8199C20.0699 94.0521 20.1057 94.164 20.1201 94.1993C20.1223 94.2049 20.1242 94.209 20.1257 94.2119C20.3174 94.3459 20.8213 94.5807 21.8735 94.7664L21.8765 94.7669L24.5015 95.2344C24.502 95.2345 24.5025 95.2346 24.5031 95.2347C25.3506 95.3843 26.1543 95.6003 26.9048 95.8894ZM24.1539 97.2039L21.5259 96.7359C20.3019 96.5199 19.4139 96.1959 18.8619 95.7639C18.3339 95.3319 18.0699 94.6839 18.0699 93.8199C18.0699 91.8279 19.2819 90.8319 21.7059 90.8319C22.8579 90.8319 23.8899 91.0479 24.8019 91.4799C25.2411 91.6765 25.6526 91.9119 26.0362 92.1864C26.449 92.4818 26.8296 92.8223 27.1779 93.2079L30.2379 89.7879C29.3499 88.7559 28.1859 87.9399 26.7459 87.3399C25.3059 86.7399 23.6139 86.4399 21.6699 86.4399C18.8139 86.4399 16.5939 87.1119 15.0099 88.4559C13.4259 89.7759 12.6339 91.6479 12.6339 94.0719C12.6339 95.9199 13.1379 97.4919 14.1459 98.7879C15.1539 100.06 16.7859 100.888 19.0419 101.272L21.6699 101.704C22.8939 101.896 23.7579 102.22 24.2619 102.676C24.7899 103.132 25.0539 103.804 25.0539 104.692C25.0539 105.772 24.7179 106.6 24.0459 107.176C23.3739 107.752 22.3899 108.04 21.0939 108.04C19.9659 108.04 18.8499 107.8 17.7459 107.32C17.2226 107.087 16.719 106.793 16.2351 106.436C15.7204 106.057 15.228 105.608 14.7579 105.088L11.6259 108.544C12.5859 109.744 13.8459 110.692 15.4059 111.388C16.9659 112.084 18.8019 112.432 20.9139 112.432C22.4979 112.432 23.8779 112.228 25.0539 111.82C26.2539 111.412 27.2619 110.848 28.0779 110.128C28.8939 109.384 29.5059 108.52 29.9139 107.536C30.3219 106.528 30.5259 105.436 30.5259 104.26C30.5259 102.268 29.9739 100.684 28.8699 99.5079C27.7659 98.3319 26.1939 97.5639 24.1539 97.2039ZM34.0398 112H40.8798L42.7158 98.1399H43.0758L44.9118 112H51.7518L53.2998 86.8719H48.8358L47.8998 106.672H47.5758L46.8724 102.006L45.4158 92.3439H40.5558L38.3958 106.672H38.0718L37.8558 101.92L37.1358 86.8719H32.4918L34.0398 112ZM53.8618 112L60.6658 86.8719H68.2978L75.1018 112H69.3418L67.7578 105.952H60.8818L59.3338 112H53.8618ZM83.4397 102.856H87.7237C88.9477 102.856 90.0397 102.676 90.9997 102.316C91.9597 101.932 92.7637 101.392 93.4117 100.696C94.0837 99.9999 94.5877 99.1599 94.9237 98.1759C95.2597 97.1919 95.4277 96.0879 95.4277 94.8639C95.4277 93.6399 95.2597 92.5359 94.9237 91.5519C94.5877 90.5679 94.0837 89.7279 93.4117 89.0319C92.7637 88.3359 91.9597 87.8079 90.9997 87.4479C90.0397 87.0639 88.9477 86.8719 87.7237 86.8719H78.0037V112H83.4397V102.856ZM64.1938 92.0919H64.4818L66.9298 101.596H61.7458L64.1938 92.0919ZM64.3378 99.551L64.3262 99.5959H64.3493L64.3378 99.551ZM87.5976 96.3355C87.6073 96.3185 87.6247 96.2827 87.6449 96.2195C87.6918 96.0719 87.7397 95.8134 87.7397 95.4039V94.3239C87.7397 93.9145 87.6918 93.6559 87.6449 93.5083C87.6247 93.4452 87.6073 93.4094 87.5976 93.3924C87.573 93.3807 87.523 93.3601 87.4382 93.3369C87.2258 93.2787 86.8786 93.2279 86.3557 93.2279H85.4397V96.4999H86.3557C86.8786 96.4999 87.2258 96.4492 87.4382 96.391C87.523 96.3678 87.573 96.3471 87.5976 96.3355ZM86.3557 98.4999C87.6277 98.4999 88.5037 98.2599 88.9837 97.7799C89.4877 97.2999 89.7397 96.5079 89.7397 95.4039V94.3239C89.7397 93.2199 89.4877 92.4279 88.9837 91.9479C88.5037 91.4679 87.6277 91.2279 86.3557 91.2279H83.4397V98.4999H86.3557Z"/>
</mask>
<path fill-rule="evenodd" clip-rule="evenodd" d="M9 108.463L14.7591 102.108L16.241 103.746C16.9914 104.576 17.764 105.138 18.5509 105.489C19.4178 105.865 20.2608 106.04 21.0939 106.04C22.1287 106.04 22.5708 105.806 22.7443 105.657C22.8765 105.544 23.0539 105.328 23.0539 104.692C23.0539 104.443 23.0165 104.31 22.9944 104.253C22.9769 104.209 22.9648 104.198 22.9551 104.19L22.9372 104.175L22.9201 104.159C22.8575 104.102 22.4722 103.854 21.3599 103.68L21.3527 103.679L18.7063 103.244C16.1625 102.811 13.9986 101.822 12.5784 100.03L12.5728 100.023L12.5672 100.016C11.2521 98.325 10.6339 96.3059 10.6339 94.0719C10.6339 91.1732 11.6054 88.6931 13.7227 86.9252C15.7828 85.1807 18.5206 84.4399 21.6699 84.4399C23.8151 84.4399 25.7794 84.7706 27.5151 85.4938C28.6305 85.9585 29.6358 86.5478 30.5126 87.2702L30.3648 84.8719H39.0424L39.3042 90.3439H46.669L46.9284 84.8719H55.4268L54.3346 102.601L59.1353 84.8719H69.8282L76.0037 107.679V84.8719H87.7237C89.1484 84.8719 90.4923 85.0944 91.7221 85.5829C92.9347 86.0407 93.995 86.7277 94.863 87.6558C95.7476 88.5759 96.3947 89.6707 96.8164 90.9057C97.2348 92.1309 97.4277 93.4581 97.4277 94.8639C97.4277 96.2698 97.2348 97.597 96.8164 98.8222C96.3947 100.057 95.7476 101.152 94.8631 102.072C93.9994 102.996 92.9463 103.691 91.7425 104.173L91.7223 104.181L91.702 104.189C90.4785 104.647 89.1422 104.856 87.7237 104.856H85.4397V114H67.7981L66.2141 107.952H62.4343L60.8863 114H43.1593L42.8958 112.011L42.6324 114H32.1592L31.802 108.201C31.7907 108.229 31.7793 108.258 31.7678 108.286L31.7646 108.294L31.7614 108.302C31.2368 109.567 30.4501 110.672 29.4254 111.606L29.4133 111.617L29.4011 111.628C28.3585 112.548 27.1107 113.232 25.7035 113.712C24.2697 114.208 22.6607 114.432 20.9139 114.432C18.5857 114.432 16.4605 114.048 14.591 113.214C12.7726 112.403 11.2449 111.269 10.0641 109.793L9 108.463ZM31.2567 99.3502L30.8129 92.1447L27.3131 96.0562C28.4679 96.556 29.4853 97.2414 30.328 98.1391C30.6832 98.5174 30.992 98.9221 31.2567 99.3502ZM26.9048 95.8894L25.6937 94.5485C25.2074 94.0101 24.6425 93.5996 23.9852 93.3056L23.9653 93.2967L23.9457 93.2874C23.3368 92.999 22.6037 92.8319 21.7059 92.8319C20.7172 92.8319 20.3473 93.0431 20.2487 93.1241C20.2479 93.1248 20.247 93.1255 20.2459 93.1263C20.2151 93.1508 20.0699 93.266 20.0699 93.8199C20.0699 94.0521 20.1057 94.164 20.1201 94.1993C20.1223 94.2049 20.1242 94.209 20.1257 94.2119C20.3174 94.3459 20.8213 94.5807 21.8735 94.7664L21.8765 94.7669L24.5015 95.2344C24.502 95.2345 24.5025 95.2346 24.5031 95.2347C25.3506 95.3843 26.1543 95.6003 26.9048 95.8894ZM24.1539 97.2039L21.5259 96.7359C20.3019 96.5199 19.4139 96.1959 18.8619 95.7639C18.3339 95.3319 18.0699 94.6839 18.0699 93.8199C18.0699 91.8279 19.2819 90.8319 21.7059 90.8319C22.8579 90.8319 23.8899 91.0479 24.8019 91.4799C25.2411 91.6765 25.6526 91.9119 26.0362 92.1864C26.449 92.4818 26.8296 92.8223 27.1779 93.2079L30.2379 89.7879C29.3499 88.7559 28.1859 87.9399 26.7459 87.3399C25.3059 86.7399 23.6139 86.4399 21.6699 86.4399C18.8139 86.4399 16.5939 87.1119 15.0099 88.4559C13.4259 89.7759 12.6339 91.6479 12.6339 94.0719C12.6339 95.9199 13.1379 97.4919 14.1459 98.7879C15.1539 100.06 16.7859 100.888 19.0419 101.272L21.6699 101.704C22.8939 101.896 23.7579 102.22 24.2619 102.676C24.7899 103.132 25.0539 103.804 25.0539 104.692C25.0539 105.772 24.7179 106.6 24.0459 107.176C23.3739 107.752 22.3899 108.04 21.0939 108.04C19.9659 108.04 18.8499 107.8 17.7459 107.32C17.2226 107.087 16.719 106.793 16.2351 106.436C15.7204 106.057 15.228 105.608 14.7579 105.088L11.6259 108.544C12.5859 109.744 13.8459 110.692 15.4059 111.388C16.9659 112.084 18.8019 112.432 20.9139 112.432C22.4979 112.432 23.8779 112.228 25.0539 111.82C26.2539 111.412 27.2619 110.848 28.0779 110.128C28.8939 109.384 29.5059 108.52 29.9139 107.536C30.3219 106.528 30.5259 105.436 30.5259 104.26C30.5259 102.268 29.9739 100.684 28.8699 99.5079C27.7659 98.3319 26.1939 97.5639 24.1539 97.2039ZM34.0398 112H40.8798L42.7158 98.1399H43.0758L44.9118 112H51.7518L53.2998 86.8719H48.8358L47.8998 106.672H47.5758L46.8724 102.006L45.4158 92.3439H40.5558L38.3958 106.672H38.0718L37.8558 101.92L37.1358 86.8719H32.4918L34.0398 112ZM53.8618 112L60.6658 86.8719H68.2978L75.1018 112H69.3418L67.7578 105.952H60.8818L59.3338 112H53.8618ZM83.4397 102.856H87.7237C88.9477 102.856 90.0397 102.676 90.9997 102.316C91.9597 101.932 92.7637 101.392 93.4117 100.696C94.0837 99.9999 94.5877 99.1599 94.9237 98.1759C95.2597 97.1919 95.4277 96.0879 95.4277 94.8639C95.4277 93.6399 95.2597 92.5359 94.9237 91.5519C94.5877 90.5679 94.0837 89.7279 93.4117 89.0319C92.7637 88.3359 91.9597 87.8079 90.9997 87.4479C90.0397 87.0639 88.9477 86.8719 87.7237 86.8719H78.0037V112H83.4397V102.856ZM64.1938 92.0919H64.4818L66.9298 101.596H61.7458L64.1938 92.0919ZM64.3378 99.551L64.3262 99.5959H64.3493L64.3378 99.551ZM87.5976 96.3355C87.6073 96.3185 87.6247 96.2827 87.6449 96.2195C87.6918 96.0719 87.7397 95.8134 87.7397 95.4039V94.3239C87.7397 93.9145 87.6918 93.6559 87.6449 93.5083C87.6247 93.4452 87.6073 93.4094 87.5976 93.3924C87.573 93.3807 87.523 93.3601 87.4382 93.3369C87.2258 93.2787 86.8786 93.2279 86.3557 93.2279H85.4397V96.4999H86.3557C86.8786 96.4999 87.2258 96.4492 87.4382 96.391C87.523 96.3678 87.573 96.3471 87.5976 96.3355ZM86.3557 98.4999C87.6277 98.4999 88.5037 98.2599 88.9837 97.7799C89.4877 97.2999 89.7397 96.5079 89.7397 95.4039V94.3239C89.7397 93.2199 89.4877 92.4279 88.9837 91.9479C88.5037 91.4679 87.6277 91.2279 86.3557 91.2279H83.4397V98.4999H86.3557Z" fill="white"/>
<path d="M88.1896 95.548C88.5823 95.8426 88.5909 96.2647 88.5894 96.3631C88.5874 96.5004 88.5569 96.6043 88.546 96.6399C88.5205 96.7235 88.4894 96.7846 88.4818 96.7995C88.4598 96.8431 88.4393 96.8752 88.4341 96.8835C88.4186 96.9079 88.4054 96.9263 88.4002 96.9335C88.3871 96.9517 88.3757 96.966 88.3679 96.9756L86.8156 95.7146C86.8062 95.726 86.7938 95.7419 86.7799 95.761C86.7743 95.7687 86.7609 95.7875 86.7453 95.8121C86.7399 95.8205 86.7194 95.8528 86.6973 95.8964C86.6898 95.9114 86.6586 95.9726 86.6331 96.0562C86.6222 96.0917 86.5917 96.1956 86.5897 96.3329C86.5882 96.4314 86.5968 96.8535 86.9896 97.148L88.1896 95.548ZM88.1896 94.1798C87.8174 94.459 87.4302 94.3743 87.3149 94.3414C87.1767 94.3019 87.0806 94.2416 87.0465 94.2195C86.9681 94.1688 86.915 94.1183 86.9019 94.1058C86.864 94.0699 86.8374 94.0389 86.8307 94.0311C86.8107 94.0078 86.7963 93.9888 86.791 93.9817C86.7773 93.9635 86.7671 93.9486 86.7611 93.9396L88.4223 92.826C88.415 92.8149 88.4037 92.7985 88.3893 92.7794C88.3836 92.7718 88.3689 92.7524 88.3487 92.7289C88.3419 92.721 88.3153 92.6899 88.2773 92.6539C88.2642 92.6415 88.2111 92.5909 88.1327 92.5402C88.0986 92.5181 88.0025 92.4578 87.8642 92.4183C87.7489 92.3854 87.3617 92.3007 86.9896 92.5798L88.1896 94.1798ZM9 108.463L7.51803 107.12L6.37411 108.382L7.43826 109.713L9 108.463ZM14.7591 102.108L16.2422 100.766L14.7603 99.1286L13.2771 100.765L14.7591 102.108ZM16.241 103.746L14.7579 105.088L14.7579 105.088L16.241 103.746ZM18.5509 105.489L17.736 107.316L17.7457 107.32L17.7554 107.324L18.5509 105.489ZM22.7443 105.657L21.4427 104.139L21.4427 104.139L22.7443 105.657ZM22.9944 104.253L21.1329 104.985L21.1329 104.985L22.9944 104.253ZM22.9551 104.19L21.6478 105.704L21.6485 105.704L22.9551 104.19ZM22.9372 104.175L21.5953 105.658L21.6125 105.673L21.6299 105.688L22.9372 104.175ZM22.9201 104.159L24.2619 102.676L24.2619 102.676L22.9201 104.159ZM21.3599 103.68L21.6699 101.704L21.6695 101.704L21.3599 103.68ZM21.3527 103.679L21.0283 105.652L21.0357 105.653L21.0431 105.655L21.3527 103.679ZM18.7063 103.244L18.3707 105.215L18.3819 105.217L18.7063 103.244ZM12.5784 100.03L11.0108 101.272L11.0109 101.272L12.5784 100.03ZM12.5728 100.023L10.9941 101.251L10.9996 101.258L11.0052 101.265L12.5728 100.023ZM12.5672 100.016L10.9885 101.244L10.9886 101.244L12.5672 100.016ZM13.7227 86.9252L15.0046 88.4604L15.0152 88.4515L13.7227 86.9252ZM27.5151 85.4938L28.2844 83.6476L28.2843 83.6476L27.5151 85.4938ZM30.5126 87.2702L29.2408 88.8138L32.7917 91.7394L32.5088 87.1472L30.5126 87.2702ZM30.3648 84.8719V82.8719H28.2378L28.3686 84.9949L30.3648 84.8719ZM39.0424 84.8719L41.0401 84.7764L40.949 82.8719H39.0424V84.8719ZM39.3042 90.3439L37.3065 90.4395L37.3976 92.3439H39.3042V90.3439ZM46.669 90.3439V92.3439H48.5765L48.6668 90.4386L46.669 90.3439ZM46.9284 84.8719V82.8719H45.0209L44.9306 84.7773L46.9284 84.8719ZM55.4268 84.8719L57.423 84.9949L57.5538 82.8719H55.4268V84.8719ZM54.3346 102.601L52.3384 102.478L56.2651 103.124L54.3346 102.601ZM59.1353 84.8719V82.8719H57.6048L57.2048 84.3492L59.1353 84.8719ZM69.8282 84.8719L71.7587 84.3492L71.3587 82.8719H69.8282V84.8719ZM76.0037 107.679L74.0732 108.201L78.0037 107.679H76.0037ZM76.0037 84.8719V82.8719H74.0037V84.8719H76.0037ZM91.7221 85.5829L90.9838 87.4416L90.9997 87.4479L91.0156 87.4539L91.7221 85.5829ZM94.863 87.6558L93.4024 89.022L93.4117 89.032L93.4212 89.0418L94.863 87.6558ZM96.8164 90.9057L94.9237 91.5519L94.9237 91.5519L96.8164 90.9057ZM96.8164 98.8222L94.9237 98.1759L94.9237 98.176L96.8164 98.8222ZM94.8631 102.072L93.4213 100.686L93.4118 100.696L93.4024 100.706L94.8631 102.072ZM91.7425 104.173L92.485 106.03L92.4853 106.03L91.7425 104.173ZM91.7223 104.181L92.4248 106.054L92.4449 106.046L92.4648 106.038L91.7223 104.181ZM91.702 104.189L92.4042 106.061L92.4044 106.061L91.702 104.189ZM85.4397 104.856V102.856H83.4397V104.856H85.4397ZM85.4397 114V116H87.4397V114H85.4397ZM67.7981 114L65.8634 114.507L66.2545 116H67.7981V114ZM66.2141 107.952L68.1489 107.445L67.7578 105.952H66.2141V107.952ZM62.4343 107.952V105.952H60.8818L60.4968 107.456L62.4343 107.952ZM60.8863 114V116H62.4389L62.8239 114.496L60.8863 114ZM43.1593 114L41.1766 114.263L41.4068 116H43.1593V114ZM42.8958 112.011L44.8785 111.748L40.9131 111.748L42.8958 112.011ZM42.6324 114V116H44.3849L44.615 114.263L42.6324 114ZM32.1592 114L30.163 114.123L30.2787 116H32.1592V114ZM31.802 108.201L33.7982 108.078L29.9413 107.467L31.802 108.201ZM31.7678 108.286L33.6216 109.037L33.6217 109.037L31.7678 108.286ZM31.7646 108.294L33.6123 109.06L33.6154 109.052L33.6185 109.045L31.7646 108.294ZM31.7614 108.302L33.6089 109.068L33.6091 109.067L31.7614 108.302ZM29.4254 111.606L28.0779 110.128L28.0779 110.128L29.4254 111.606ZM29.4133 111.617L30.7364 113.117L30.7487 113.106L30.7609 113.095L29.4133 111.617ZM29.4011 111.628L28.078 110.128L28.0779 110.128L29.4011 111.628ZM25.7035 113.712L25.0588 111.818L25.0491 111.822L25.7035 113.712ZM14.591 113.214L15.4059 111.388L15.4059 111.388L14.591 113.214ZM10.0641 109.793L11.6259 108.544L11.6259 108.544L10.0641 109.793ZM30.8129 92.1447L32.8091 92.0218L32.5147 87.2433L29.3224 90.8112L30.8129 92.1447ZM31.2567 99.3502L29.5557 100.402L33.253 99.2272L31.2567 99.3502ZM27.3131 96.0562L25.8226 94.7226L23.9729 96.79L26.5188 97.8917L27.3131 96.0562ZM30.328 98.1391L28.8699 99.5079L28.8699 99.5079L30.328 98.1391ZM25.6937 94.5485L27.1779 93.2079L27.1779 93.2079L25.6937 94.5485ZM26.9048 95.8894L26.1859 97.7557L28.389 94.5488L26.9048 95.8894ZM23.9852 93.3056L24.8019 91.4799L24.8018 91.4799L23.9852 93.3056ZM23.9653 93.2967L23.1092 95.1042L23.1289 95.1135L23.1487 95.1224L23.9653 93.2967ZM23.9457 93.2874L23.0895 95.0949L23.0896 95.0949L23.9457 93.2874ZM20.2487 93.1241L18.9789 91.5789L18.9786 91.5792L20.2487 93.1241ZM20.2459 93.1263L21.4889 94.6932L21.4894 94.6928L20.2459 93.1263ZM20.1201 94.1993L18.2679 94.9539L18.2679 94.954L20.1201 94.1993ZM20.1257 94.2119L18.3359 95.1045L18.5629 95.5597L18.9798 95.8512L20.1257 94.2119ZM21.8735 94.7664L22.2213 92.7969L22.221 92.7968L21.8735 94.7664ZM21.8765 94.7669L22.2272 92.7979L22.2244 92.7974L21.8765 94.7669ZM24.5015 95.2344L24.1508 97.2034L24.1509 97.2034L24.5015 95.2344ZM24.5031 95.2347L24.152 97.2036L24.1553 97.2042L24.5031 95.2347ZM21.5259 96.7359L21.8765 94.7669L21.8735 94.7664L21.5259 96.7359ZM24.1539 97.2039L23.8032 99.173L23.8063 99.1735L24.1539 97.2039ZM18.8619 95.7639L17.5954 97.3119L17.6122 97.3256L17.6293 97.3389L18.8619 95.7639ZM24.8019 91.4799L23.9457 93.2874L23.9653 93.2967L23.9852 93.3056L24.8019 91.4799ZM26.0362 92.1864L27.2 90.5599L27.2 90.5599L26.0362 92.1864ZM27.1779 93.2079L25.6937 94.5485L27.1849 96.1995L28.6684 94.5415L27.1779 93.2079ZM30.2379 89.7879L31.7284 91.1215L32.8985 89.8137L31.7539 88.4835L30.2379 89.7879ZM26.7459 87.3399L27.5151 85.4938L27.5151 85.4938L26.7459 87.3399ZM15.0099 88.4559L16.2903 89.9924L16.2971 89.9867L16.3038 89.981L15.0099 88.4559ZM14.1459 98.7879L12.5672 100.016L12.5728 100.023L12.5784 100.03L14.1459 98.7879ZM19.0419 101.272L18.7063 103.244L18.7175 103.245L19.0419 101.272ZM21.6699 101.704L21.3455 103.677L21.3527 103.679L21.3599 103.68L21.6699 101.704ZM24.2619 102.676L22.9201 104.159L22.9372 104.175L22.9546 104.19L24.2619 102.676ZM24.0459 107.176L22.7443 105.657L22.7443 105.657L24.0459 107.176ZM17.7459 107.32L16.9336 109.148L16.941 109.151L16.9484 109.154L17.7459 107.32ZM16.2351 106.436L17.4215 104.826L17.4215 104.826L16.2351 106.436ZM14.7579 105.088L16.241 103.746L14.7591 102.108L13.2759 103.745L14.7579 105.088ZM11.6259 108.544L10.1439 107.201L9 108.463L10.0641 109.793L11.6259 108.544ZM15.4059 111.388L16.2208 109.561L16.2208 109.561L15.4059 111.388ZM25.0539 111.82L24.4101 109.926L24.3983 109.93L25.0539 111.82ZM28.0779 110.128L29.4011 111.628L29.4133 111.617L29.4254 111.606L28.0779 110.128ZM29.9139 107.536L31.7614 108.302L31.7646 108.294L31.7678 108.286L29.9139 107.536ZM28.8699 99.5079L30.328 98.1391L30.328 98.1391L28.8699 99.5079ZM34.0398 112L32.0436 112.123L32.1592 114H34.0398V112ZM40.8798 112V114H42.6324L42.8625 112.263L40.8798 112ZM42.7158 98.1399V96.1399H40.9633L40.7331 97.8773L42.7158 98.1399ZM43.0758 98.1399L45.0585 97.8773L44.8284 96.1399H43.0758V98.1399ZM44.9118 112L42.9291 112.263L43.1593 114H44.9118V112ZM51.7518 112V114H53.6324L53.748 112.123L51.7518 112ZM53.2998 86.8719L55.296 86.9949L55.4268 84.8719H53.2998V86.8719ZM48.8358 86.8719V84.8719H46.9281L46.8381 86.7775L48.8358 86.8719ZM47.8998 106.672V108.672H49.8075L49.8976 106.766L47.8998 106.672ZM47.5758 106.672L45.5982 106.97L45.8547 108.672H47.5758V106.672ZM46.8724 102.006L44.8947 102.304L44.8947 102.304L46.8724 102.006ZM45.4158 92.3439L47.3935 92.0458L47.1369 90.3439H45.4158V92.3439ZM40.5558 92.3439V90.3439H38.8347L38.5782 92.0458L40.5558 92.3439ZM38.3958 106.672V108.672H40.1169L40.3735 106.97L38.3958 106.672ZM38.0718 106.672L36.0739 106.763L36.1607 108.672H38.0718V106.672ZM37.8558 101.92L39.8538 101.829L39.8535 101.824L37.8558 101.92ZM37.1358 86.8719L39.1335 86.7764L39.0424 84.8719H37.1358V86.8719ZM32.4918 86.8719V84.8719H30.3648L30.4956 86.9949L32.4918 86.8719ZM53.8618 112L51.9313 111.477L51.2482 114H53.8618V112ZM60.6658 86.8719V84.8719H59.1353L58.7353 86.3492L60.6658 86.8719ZM68.2978 86.8719L70.2282 86.3492L69.8282 84.8719H68.2978V86.8719ZM75.1018 112V114H77.7153L77.0322 111.477L75.1018 112ZM69.3418 112L67.407 112.507L67.7981 114H69.3418V112ZM67.7578 105.952L69.6925 105.445L69.3014 103.952H67.7578V105.952ZM60.8818 105.952V103.952H59.3292L58.9442 105.456L60.8818 105.952ZM59.3338 112V114H60.8863L61.2713 112.496L59.3338 112ZM83.4397 102.856V100.856H81.4397V102.856H83.4397ZM90.9997 102.316L91.7019 104.189L91.7223 104.181L91.7425 104.173L90.9997 102.316ZM93.4117 100.696L91.9729 99.3067L91.9603 99.3198L91.9479 99.3331L93.4117 100.696ZM94.9237 98.1759L96.8164 98.8222L96.8164 98.8222L94.9237 98.1759ZM94.9237 91.5519L93.031 92.1982L93.031 92.1982L94.9237 91.5519ZM93.4117 89.0319L91.9479 90.3948L91.9603 90.4081L91.9729 90.4211L93.4117 89.0319ZM90.9997 87.4479L90.2569 89.3049L90.2771 89.313L90.2975 89.3206L90.9997 87.4479ZM78.0037 86.8719V84.8719H76.0037V86.8719H78.0037ZM78.0037 112H76.0037V114H78.0037V112ZM83.4397 112V114H85.4397V112H83.4397ZM64.1938 92.0919V90.0919H62.6436L62.257 91.5931L64.1938 92.0919ZM64.4818 92.0919L66.4185 91.5931L66.0319 90.0919H64.4818V92.0919ZM66.9298 101.596V103.596H69.5102L68.8665 101.097L66.9298 101.596ZM61.7458 101.596L59.809 101.097L59.1653 103.596H61.7458V101.596ZM64.3262 99.5959L62.3894 99.0971L61.7457 101.596H64.3262V99.5959ZM64.3378 99.551L66.2745 99.052L62.401 99.0521L64.3378 99.551ZM64.3493 99.5959V101.596H66.93L66.2861 99.0969L64.3493 99.5959ZM87.6449 96.2195L89.5507 96.826L89.5507 96.8259L87.6449 96.2195ZM87.5976 96.3355L88.4529 98.1434L89.0239 97.8732L89.3362 97.3241L87.5976 96.3355ZM87.6449 93.5083L89.5507 92.902L89.5507 92.9019L87.6449 93.5083ZM87.5976 93.3924L89.3362 92.4038L89.024 91.8548L88.4532 91.5846L87.5976 93.3924ZM87.4382 93.3369L86.9098 95.2658L86.9098 95.2658L87.4382 93.3369ZM85.4397 93.2279V91.2279H83.4397V93.2279H85.4397ZM85.4397 96.4999H83.4397V98.4999H85.4397V96.4999ZM87.4382 96.391L87.9667 98.3199L87.9667 98.3199L87.4382 96.391ZM88.9837 97.7799L87.6044 96.3317L87.5867 96.3485L87.5695 96.3657L88.9837 97.7799ZM88.9837 91.9479L87.5695 93.3622L87.5867 93.3794L87.6044 93.3962L88.9837 91.9479ZM83.4397 91.2279V89.2279H81.4397V91.2279H83.4397ZM83.4397 98.4999H81.4397V100.5H83.4397V98.4999ZM17.724 102.404L16.2422 100.766L13.276 103.45L14.7579 105.088L17.724 102.404ZM19.3658 103.663C18.8681 103.441 18.3156 103.058 17.724 102.404L14.7579 105.088C15.6672 106.093 16.6599 106.835 17.736 107.316L19.3658 103.663ZM21.0939 104.04C20.5523 104.04 19.9791 103.928 19.3464 103.654L17.7554 107.324C18.8564 107.801 19.9693 108.04 21.0939 108.04V104.04ZM21.4427 104.139C21.6028 104.002 21.7116 103.976 21.677 103.986C21.6383 103.997 21.4659 104.04 21.0939 104.04V108.04C22.3956 108.04 23.3769 107.749 24.0459 107.176L21.4427 104.139ZM21.0539 104.692C21.0539 104.835 21.0326 104.771 21.0997 104.609C21.135 104.523 21.1873 104.428 21.2592 104.334C21.331 104.24 21.4011 104.175 21.4427 104.139L24.0459 107.176C24.2949 106.963 24.591 106.635 24.7977 106.133C24.9864 105.675 25.0539 105.186 25.0539 104.692H21.0539ZM21.1329 104.985C21.0453 104.762 21.0539 104.638 21.0539 104.692H25.0539C25.0539 104.247 24.9877 103.857 24.8559 103.522L21.1329 104.985ZM21.6485 105.704C21.6532 105.708 21.5946 105.659 21.5293 105.592C21.4581 105.519 21.3916 105.439 21.3314 105.352C21.2186 105.191 21.1588 105.05 21.1329 104.985L24.8559 103.522C24.8125 103.412 24.7379 103.244 24.6122 103.064C24.4612 102.847 24.3047 102.713 24.2616 102.676L21.6485 105.704ZM21.5782 105.642L21.5953 105.658L24.279 102.691L24.2619 102.676L21.5782 105.642ZM21.05 105.656C21.5013 105.726 21.7408 105.802 21.8332 105.837C21.8791 105.854 21.8805 105.858 21.8493 105.841C21.8337 105.832 21.8049 105.816 21.7664 105.79C21.7357 105.77 21.6648 105.72 21.5782 105.642L24.2619 102.676C23.9594 102.402 23.5775 102.219 23.2341 102.09C22.8401 101.943 22.3309 101.808 21.6699 101.704L21.05 105.656ZM21.0431 105.655L21.0504 105.656L21.6695 101.704L21.6623 101.703L21.0431 105.655ZM11.0109 101.272C12.8439 103.585 15.5407 104.734 18.3707 105.215L19.0419 101.272C16.7843 100.888 15.1532 100.059 14.1459 98.7879L11.0109 101.272ZM11.0052 101.265L11.0108 101.272L14.146 98.788L14.1403 98.7809L11.0052 101.265ZM10.9886 101.244L10.9941 101.251L14.1514 98.795L14.1458 98.7878L10.9886 101.244ZM8.63388 94.0719C8.63388 96.6913 9.36602 99.1577 10.9885 101.244L14.1459 98.7879C13.1382 97.4923 12.6339 95.9205 12.6339 94.0719H8.63388ZM12.4408 85.39C9.78528 87.6074 8.63388 90.698 8.63388 94.0719H12.6339C12.6339 91.6484 13.4256 89.7789 15.0046 88.4603L12.4408 85.39ZM21.6699 82.4399C18.2253 82.4399 14.9674 83.2505 12.4302 85.3989L15.0152 88.4515C16.5981 87.111 18.8159 86.4399 21.6699 86.4399V82.4399ZM28.2843 83.6476C26.2528 82.8012 24.0162 82.4399 21.6699 82.4399V86.4399C23.614 86.4399 25.3059 86.74 26.7459 87.3399L28.2843 83.6476ZM31.7843 85.7266C30.7393 84.8656 29.5603 84.1793 28.2844 83.6476L26.7459 87.3399C27.7007 87.7378 28.5323 88.2301 29.2408 88.8138L31.7843 85.7266ZM92.4604 83.7241C90.9567 83.1269 89.3557 82.8719 87.7237 82.8719V86.8719C88.9411 86.8719 90.0278 87.0619 90.9838 87.4416L92.4604 83.7241ZM96.3237 86.2896C95.2303 85.1205 93.9052 84.2694 92.4287 83.7118L91.0156 87.4539C91.9641 87.8121 92.7597 88.3348 93.4024 89.022L96.3237 86.2896ZM98.7091 90.2594C98.2002 88.7689 97.4069 87.416 96.3048 86.2697L93.4212 89.0418C94.0883 89.7358 94.5892 90.5724 94.9237 91.5519L98.7091 90.2594ZM99.4277 94.8639C99.4277 93.2763 99.2098 91.7258 98.7091 90.2594L94.9237 91.5519C95.2597 92.5359 95.4277 93.6399 95.4277 94.8639H99.4277ZM98.7091 99.4685C99.2098 98.002 99.4277 96.4516 99.4277 94.8639H95.4277C95.4277 96.088 95.2597 97.192 94.9237 98.1759L98.7091 99.4685ZM96.3049 103.458C97.4069 102.312 98.2002 100.959 98.7091 99.4685L94.9237 98.176C94.5892 99.1554 94.0884 99.9921 93.4213 100.686L96.3049 103.458ZM92.4853 106.03C93.9373 105.449 95.2426 104.594 96.3239 103.438L93.4024 100.706C92.7561 101.397 91.9553 101.934 90.9997 102.316L92.4853 106.03ZM92.4648 106.038L92.485 106.03L90.9999 102.316L90.9798 102.324L92.4648 106.038ZM92.4044 106.061L92.4248 106.054L91.0198 102.308L90.9995 102.316L92.4044 106.061ZM87.7237 106.856C89.3366 106.856 90.9173 106.619 92.4042 106.061L90.9997 102.316C90.0398 102.676 88.9478 102.856 87.7237 102.856V106.856ZM85.4397 106.856H87.7237V102.856H85.4397V106.856ZM62.4343 109.952H66.2141V105.952H62.4343V109.952ZM33.6217 109.037C33.6355 109.003 33.6492 108.968 33.6627 108.934L29.9413 107.467C29.9322 107.49 29.9231 107.513 29.9139 107.536L33.6217 109.037ZM33.6185 109.045L33.6216 109.037L29.9139 107.536L29.9108 107.544L33.6185 109.045ZM33.6091 109.067L33.6123 109.06L29.9169 107.529L29.9137 107.536L33.6091 109.067ZM30.7729 113.084C32.0063 111.959 32.9677 110.614 33.6089 109.068L29.9139 107.536C29.5059 108.52 28.8939 109.384 28.0779 110.128L30.7729 113.084ZM30.7609 113.095L30.7729 113.084L28.0779 110.128L28.0658 110.139L30.7609 113.095ZM30.7242 113.127L30.7364 113.117L28.0903 110.117L28.078 110.128L30.7242 113.127ZM26.3482 115.605C27.9647 115.054 29.4539 114.248 30.7244 113.127L28.0779 110.128C27.2631 110.847 26.2568 111.41 25.0588 111.818L26.3482 115.605ZM20.9139 116.432C22.8257 116.432 24.6652 116.188 26.358 115.601L25.0491 111.822C23.8741 112.228 22.4957 112.432 20.9139 112.432V116.432ZM13.7761 115.041C15.9552 116.013 18.3696 116.432 20.9139 116.432V112.432C18.8018 112.432 16.9658 112.084 15.4059 111.388L13.7761 115.041ZM8.50241 111.043C9.904 112.795 11.6994 114.114 13.7761 115.041L15.4059 111.388C13.8458 110.692 12.5858 109.744 11.6259 108.544L8.50241 111.043ZM7.43826 109.713L8.50241 111.043L11.6259 108.544L10.5617 107.214L7.43826 109.713ZM28.8166 92.2677L29.2605 99.4732L33.253 99.2272L32.8091 92.0218L28.8166 92.2677ZM31.7862 96.7702C30.7363 95.6518 29.4847 94.8167 28.1075 94.2207L26.5188 97.8917C27.4512 98.2952 28.2343 98.8309 28.8699 99.5079L31.7862 96.7702ZM32.9578 98.2983C32.6232 97.7573 32.2332 97.2464 31.7862 96.7702L28.8699 99.5079C29.1333 99.7885 29.3608 100.087 29.5557 100.402L32.9578 98.2983ZM24.2095 95.8891L25.4206 97.2299L28.389 94.5488L27.1779 93.2079L24.2095 95.8891ZM23.1684 95.1312C23.571 95.3113 23.9089 95.5563 24.2095 95.8891L27.1779 93.2079C26.5059 92.4639 25.7139 91.8879 24.8019 91.4799L23.1684 95.1312ZM23.1487 95.1224L23.1685 95.1312L24.8018 91.4799L24.782 91.471L23.1487 95.1224ZM23.0896 95.0949L23.1092 95.1042L24.8214 91.4892L24.8018 91.4799L23.0896 95.0949ZM21.7059 94.8319C22.3493 94.8319 22.7836 94.95 23.0895 95.0949L24.8019 91.4799C23.8901 91.048 22.8582 90.8319 21.7059 90.8319V94.8319ZM21.5185 94.6693C21.405 94.7626 21.3102 94.8153 21.2553 94.8421C21.1971 94.8704 21.1665 94.8781 21.1747 94.8758C21.1937 94.8706 21.349 94.8319 21.7059 94.8319V90.8319C20.489 90.8319 19.5824 91.083 18.9789 91.5789L21.5185 94.6693ZM21.4894 94.6928C21.4894 94.6928 21.4898 94.6925 21.49 94.6923C21.4903 94.6921 21.4907 94.6917 21.4912 94.6913C21.4923 94.6905 21.494 94.6891 21.4962 94.6874C21.5001 94.6843 21.5084 94.6776 21.5188 94.6691L18.9786 91.5792C18.9882 91.5713 18.9956 91.5653 18.9986 91.5629C19.0014 91.5607 19.004 91.5587 19.0024 91.5599L21.4894 94.6928ZM22.0699 93.8199C22.0699 93.7013 22.0877 93.8048 22.0051 94.0129C21.9607 94.1245 21.8896 94.2604 21.7794 94.4011C21.7247 94.4709 21.6664 94.5341 21.6067 94.5907C21.5774 94.6186 21.5504 94.6423 21.5274 94.6617C21.5054 94.6802 21.4874 94.6944 21.4889 94.6932L19.003 91.5595C18.7718 91.7429 18.482 92.0469 18.2876 92.5363C18.1246 92.9466 18.0699 93.3847 18.0699 93.8199H22.0699ZM21.9723 93.4448C22.0751 93.6973 22.0699 93.8511 22.0699 93.8199H18.0699C18.0699 94.253 18.1362 94.6307 18.2679 94.9539L21.9723 93.4448ZM21.9155 93.3194C21.9384 93.3654 21.9571 93.4076 21.9722 93.4447L18.2679 94.954C18.2875 95.0022 18.31 95.0526 18.3359 95.1045L21.9155 93.3194ZM22.221 92.7968C21.7802 92.719 21.499 92.6386 21.3384 92.5824C21.1631 92.5209 21.17 92.5017 21.2715 92.5727L18.9798 95.8512C19.5186 96.2277 20.3539 96.5291 21.5259 96.7359L22.221 92.7968ZM22.2244 92.7974L22.2213 92.7969L21.5256 96.7359L21.5286 96.7364L22.2244 92.7974ZM24.8521 93.2654L22.2272 92.7979L21.5259 96.7359L24.1508 97.2034L24.8521 93.2654ZM24.8542 93.2657C24.8518 93.2653 24.8497 93.2649 24.8496 93.2649C24.8489 93.2648 24.8503 93.265 24.852 93.2653L24.1509 97.2034C24.1522 97.2036 24.1532 97.2038 24.1538 97.2039C24.1544 97.204 24.1549 97.2041 24.1549 97.2041C24.1554 97.2042 24.1539 97.2039 24.152 97.2036L24.8542 93.2657ZM27.6237 94.023C26.7386 93.6821 25.8089 93.4343 24.8509 93.2651L24.1553 97.2042C24.8924 97.3344 25.5701 97.5185 26.1859 97.7557L27.6237 94.023ZM21.1752 98.705L23.8032 99.173L24.5045 95.2349L21.8765 94.7669L21.1752 98.705ZM17.6293 97.3389C18.5689 98.0743 19.8456 98.4703 21.1783 98.7055L21.8735 94.7664C20.7582 94.5696 20.2589 94.3176 20.0945 94.1889L17.6293 97.3389ZM16.0699 93.8199C16.0699 95.11 16.4836 96.4022 17.5954 97.3119L20.1284 94.216C20.1243 94.2127 20.1257 94.2133 20.1282 94.2167C20.1305 94.2199 20.1269 94.2162 20.1201 94.1993C20.1057 94.164 20.0699 94.0521 20.0699 93.8199H16.0699ZM21.7059 88.8319C20.2706 88.8319 18.8224 89.1188 17.7091 90.0338C16.5206 91.0104 16.0699 92.4008 16.0699 93.8199H20.0699C20.0699 93.2471 20.2252 93.1434 20.2487 93.1241C20.3473 93.0431 20.7172 92.8319 21.7059 92.8319V88.8319ZM25.6581 89.6725C24.4429 89.0969 23.112 88.8319 21.7059 88.8319V92.8319C22.6037 92.8319 23.3368 92.999 23.9457 93.2874L25.6581 89.6725ZM27.2 90.5599C26.7054 90.206 26.1775 89.9043 25.6186 89.6543L23.9852 93.3056C24.3048 93.4486 24.5997 93.6178 24.8724 93.8129L27.2 90.5599ZM28.6621 91.8674C28.2198 91.3777 27.7323 90.9408 27.2 90.5599L24.8724 93.8129C25.1657 94.0228 25.4393 94.2669 25.6937 94.5485L28.6621 91.8674ZM25.9767 89.1861C27.171 89.6838 28.065 90.329 28.7219 91.0924L31.7539 88.4835C30.6348 87.1828 29.2007 86.1961 27.5151 85.4938L25.9767 89.1861ZM21.6699 88.4399C23.4127 88.4399 24.8324 88.7093 25.9767 89.1861L27.5151 85.4938C25.7794 84.7706 23.8151 84.4399 21.6699 84.4399V88.4399ZM16.3038 89.981C17.411 89.0415 19.1106 88.4399 21.6699 88.4399V84.4399C18.5172 84.4399 15.7767 85.1824 13.7159 86.9309L16.3038 89.981ZM14.6339 94.0719C14.6339 92.1258 15.2443 90.864 16.2903 89.9924L13.7295 86.9195C11.6075 88.6878 10.6339 91.1701 10.6339 94.0719H14.6339ZM15.7246 97.5601C15.0237 96.6589 14.6339 95.534 14.6339 94.0719H10.6339C10.6339 96.3059 11.2521 98.325 12.5672 100.016L15.7246 97.5601ZM19.3775 99.3003C17.4093 98.9653 16.3092 98.2977 15.7134 97.5458L12.5784 100.03C13.9986 101.822 16.1625 102.811 18.7063 103.244L19.3775 99.3003ZM21.9943 99.7304L19.3663 99.2984L18.7175 103.245L21.3455 103.677L21.9943 99.7304ZM25.6037 101.193C24.6583 100.337 23.3156 99.9376 21.9798 99.7281L21.3599 103.68C22.4722 103.854 22.8575 104.102 22.9201 104.159L25.6037 101.193ZM27.0539 104.692C27.0539 103.393 26.6515 102.097 25.5691 101.162L22.9546 104.19C22.9645 104.198 22.9767 104.208 22.9944 104.253C23.0165 104.31 23.0539 104.443 23.0539 104.692H27.0539ZM25.3475 108.694C26.5593 107.656 27.0539 106.215 27.0539 104.692H23.0539C23.0539 105.328 22.8765 105.544 22.7443 105.657L25.3475 108.694ZM21.0939 110.04C22.651 110.04 24.177 109.698 25.3475 108.694L22.7443 105.657C22.5708 105.806 22.1287 106.04 21.0939 106.04V110.04ZM16.9484 109.154C18.2869 109.736 19.6734 110.04 21.0939 110.04V106.04C20.2584 106.04 19.4129 105.864 18.5433 105.486L16.9484 109.154ZM15.0487 108.046C15.6433 108.484 16.2717 108.853 16.9336 109.148L18.5582 105.492C18.1734 105.321 17.7947 105.101 17.4215 104.826L15.0487 108.046ZM13.2748 106.43C13.8261 107.039 14.4167 107.581 15.0487 108.046L17.4215 104.826C17.0241 104.533 16.6298 104.176 16.241 103.746L13.2748 106.43ZM16.2208 109.561C14.9192 108.981 13.9269 108.219 13.1876 107.295L10.0641 109.793C11.2449 111.269 12.7726 112.403 14.591 113.214L16.2208 109.561ZM20.9139 110.432C19.0181 110.432 17.4713 110.119 16.2208 109.561L14.591 113.214C16.4605 114.048 18.5857 114.432 20.9139 114.432V110.432ZM24.3983 109.93C23.4817 110.248 22.3327 110.432 20.9139 110.432V114.432C22.6631 114.432 24.2741 114.207 25.7094 113.709L24.3983 109.93ZM26.7546 108.628C26.1667 109.147 25.4005 109.59 24.4101 109.926L25.6977 113.713C27.1073 113.234 28.357 112.549 29.4011 111.628L26.7546 108.628ZM28.0664 106.77C27.775 107.473 27.3377 108.096 26.7304 108.65L29.4254 111.606C30.4501 110.672 31.2368 109.567 31.7614 108.302L28.0664 106.77ZM28.5259 104.26C28.5259 105.2 28.3639 106.035 28.06 106.786L31.7678 108.286C32.2799 107.021 32.5259 105.672 32.5259 104.26H28.5259ZM27.4117 100.877C28.0903 101.6 28.5259 102.651 28.5259 104.26H32.5259C32.5259 101.885 31.8575 99.7682 30.328 98.1391L27.4117 100.877ZM23.8063 99.1735C25.5426 99.4799 26.678 100.095 27.4117 100.877L30.328 98.1391C28.8538 96.5687 26.8452 95.648 24.5015 95.2344L23.8063 99.1735ZM40.8798 110H34.0398V114H40.8798V110ZM43.0758 96.1399H42.7158V100.14H43.0758V96.1399ZM51.7518 110H44.9118V114H51.7518V110ZM47.5758 108.672H47.8998V104.672H47.5758V108.672ZM40.5558 94.3439H45.4158V90.3439H40.5558V94.3439ZM38.0718 108.672H38.3958V104.672H38.0718V108.672ZM60.6658 88.8719H68.2978V84.8719H60.6658V88.8719ZM71.2765 111.493L69.6925 105.445L65.823 106.459L67.407 112.507L71.2765 111.493ZM67.7578 103.952H60.8818V107.952H67.7578V103.952ZM58.9442 105.456L57.3962 111.504L61.2713 112.496L62.8193 106.448L58.9442 105.456ZM90.2975 100.443C89.6009 100.705 88.7532 100.856 87.7237 100.856V104.856C89.1422 104.856 90.4785 104.647 91.7019 104.189L90.2975 100.443ZM91.9479 99.3331C91.5179 99.7949 90.9673 100.175 90.2569 100.459L91.7425 104.173C92.9521 103.689 94.0095 102.989 94.8755 102.059L91.9479 99.3331ZM93.031 97.5297C92.7827 98.2568 92.4259 98.8376 91.9729 99.3067L94.8505 102.085C95.7415 101.162 96.3927 100.063 96.8164 98.8222L93.031 97.5297ZM93.4277 94.8639C93.4277 95.9061 93.2846 96.7869 93.031 97.5297L96.8164 98.8222C97.2348 97.597 97.4277 96.2698 97.4277 94.8639H93.4277ZM93.031 92.1982C93.2846 92.941 93.4277 93.8218 93.4277 94.8639H97.4277C97.4277 93.4581 97.2348 92.1309 96.8164 90.9057L93.031 92.1982ZM91.9729 90.4211C92.4259 90.8903 92.7827 91.471 93.031 92.1982L96.8164 90.9057C96.3927 89.6648 95.7415 88.5656 94.8505 87.6427L91.9729 90.4211ZM90.2975 89.3206C90.9907 89.5806 91.5271 89.9428 91.9479 90.3948L94.8755 87.6691C94.0003 86.7291 92.9287 86.0353 91.702 85.5753L90.2975 89.3206ZM87.7237 88.8719C88.7391 88.8719 89.5723 89.0311 90.2569 89.3049L91.7425 85.591C90.5071 85.0968 89.1563 84.8719 87.7237 84.8719V88.8719ZM64.4818 90.0919H64.1938V94.0919H64.4818V90.0919ZM66.263 100.095L66.2745 100.05L62.401 99.0521L62.3894 99.0971L66.263 100.095ZM64.3493 97.5959H64.3262V101.596H64.3493V97.5959ZM62.401 100.05L62.4126 100.095L66.2861 99.0969L66.2745 99.052L62.401 100.05ZM85.739 95.6131C85.7533 95.5681 85.788 95.4717 85.859 95.3469L89.3362 97.3241C89.4265 97.1652 89.4962 96.9973 89.5507 96.826L85.739 95.6131ZM85.7397 95.4039C85.7397 95.5317 85.7322 95.6099 85.7273 95.6465C85.7222 95.6851 85.7211 95.6695 85.739 95.6132L89.5507 96.8259C89.6767 96.4299 89.7397 95.9559 89.7397 95.4039H85.7397ZM85.7397 94.3239V95.4039H89.7397V94.3239H85.7397ZM85.739 94.1147C85.7211 94.0584 85.7222 94.0428 85.7273 94.0814C85.7322 94.1179 85.7397 94.1962 85.7397 94.3239H89.7397C89.7397 93.772 89.6767 93.298 89.5507 92.902L85.739 94.1147ZM85.859 94.381C85.788 94.2562 85.7533 94.1598 85.739 94.1148L89.5507 92.9019C89.4962 92.7305 89.4265 92.5626 89.3362 92.4038L85.859 94.381ZM86.9098 95.2658C86.8971 95.2623 86.8358 95.2446 86.742 95.2002L88.4532 91.5846C88.3101 91.5169 88.1489 91.4579 87.9667 91.4079L86.9098 95.2658ZM86.3557 95.2279C86.7657 95.2279 86.923 95.2694 86.9098 95.2658L87.9667 91.4079C87.5285 91.2879 86.9914 91.2279 86.3557 91.2279V95.2279ZM85.4397 95.2279H86.3557V91.2279H85.4397V95.2279ZM87.4397 96.4999V93.2279H83.4397V96.4999H87.4397ZM86.3557 94.4999H85.4397V98.4999H86.3557V94.4999ZM86.9098 94.4621C86.9231 94.4585 86.7657 94.4999 86.3557 94.4999V98.4999C86.9914 98.4999 87.5285 98.44 87.9667 98.3199L86.9098 94.4621ZM86.7422 94.5276C86.8359 94.4833 86.8971 94.4656 86.9098 94.4621L87.9667 98.3199C88.1489 98.27 88.31 98.211 88.4529 98.1434L86.7422 94.5276ZM86.3557 100.5C87.7428 100.5 89.3264 100.266 90.3979 99.1942L87.5695 96.3657C87.6443 96.2909 87.6505 96.3329 87.4382 96.391C87.2258 96.4492 86.8786 96.4999 86.3557 96.4999V100.5ZM90.363 99.2282C91.4435 98.1991 91.7397 96.7431 91.7397 95.4039H87.7397C87.7397 95.8134 87.6918 96.0719 87.6448 96.2195C87.601 96.3572 87.5697 96.3647 87.6044 96.3317L90.363 99.2282ZM91.7397 95.4039V94.3239H87.7397V95.4039H91.7397ZM91.7397 94.3239C91.7397 92.9848 91.4435 91.5287 90.363 90.4997L87.6044 93.3962C87.5697 93.3632 87.601 93.3707 87.6448 93.5083C87.6918 93.6559 87.7397 93.9145 87.7397 94.3239H91.7397ZM90.3979 90.5337C89.3264 89.4622 87.7428 89.2279 86.3557 89.2279V93.2279C86.8786 93.2279 87.2258 93.2787 87.4382 93.3369C87.6505 93.395 87.6443 93.437 87.5695 93.3622L90.3979 90.5337ZM13.2771 100.765L7.51803 107.12L10.482 109.806L16.2411 103.451L13.2771 100.765ZM21.6299 105.688L21.6478 105.704L24.2623 102.676L24.2444 102.661L21.6299 105.688ZM18.3819 105.217L21.0283 105.652L21.6771 101.705L19.0307 101.27L18.3819 105.217ZM28.3686 84.9949L28.5163 87.3932L32.5088 87.1472L32.361 84.749L28.3686 84.9949ZM39.0424 82.8719H30.3648V86.8719H39.0424V82.8719ZM41.3019 90.2484L41.0401 84.7764L37.0447 84.9675L37.3065 90.4395L41.3019 90.2484ZM46.669 88.3439H39.3042V92.3439H46.669V88.3439ZM44.9306 84.7773L44.6713 90.2493L48.6668 90.4386L48.9261 84.9666L44.9306 84.7773ZM55.4268 82.8719H46.9284V86.8719H55.4268V82.8719ZM56.3308 102.724L57.423 84.9949L53.4306 84.749L52.3384 102.478L56.3308 102.724ZM57.2048 84.3492L52.4041 102.079L56.2651 103.124L61.0658 85.3947L57.2048 84.3492ZM69.8282 82.8719H59.1353V86.8719H69.8282V82.8719ZM77.9342 107.156L71.7587 84.3492L67.8978 85.3947L74.0732 108.201L77.9342 107.156ZM74.0037 84.8719V107.679H78.0037V84.8719H74.0037ZM87.7237 82.8719H76.0037V86.8719H87.7237V82.8719ZM87.4397 114V104.856H83.4397V114H87.4397ZM67.7981 116H85.4397V112H67.7981V116ZM64.2794 108.459L65.8634 114.507L69.7329 113.493L68.1489 107.445L64.2794 108.459ZM62.8239 114.496L64.3719 108.448L60.4968 107.456L58.9488 113.504L62.8239 114.496ZM43.1593 116H60.8863V112H43.1593V116ZM40.9131 112.274L41.1766 114.263L45.142 113.737L44.8785 111.748L40.9131 112.274ZM44.615 114.263L44.8785 112.274L40.9131 111.748L40.6497 113.737L44.615 114.263ZM32.1592 116H42.6324V112H32.1592V116ZM29.8058 108.324L30.163 114.123L34.1555 113.877L33.7982 108.078L29.8058 108.324ZM28.8036 97.3898L32.3033 93.4783L29.3224 90.8112L25.8226 94.7226L28.8036 97.3898ZM28.7474 88.4544L25.6874 91.8744L28.6684 94.5415L31.7284 91.1215L28.7474 88.4544ZM13.1079 109.887L16.2399 106.431L13.2759 103.745L10.1439 107.201L13.1079 109.887ZM36.036 111.877L34.488 86.749L30.4956 86.9949L32.0436 112.123L36.036 111.877ZM40.7331 97.8773L38.8971 111.737L42.8625 112.263L44.6985 98.4026L40.7331 97.8773ZM46.8945 111.737L45.0585 97.8773L41.0931 98.4026L42.9291 112.263L46.8945 111.737ZM51.3036 86.749L49.7556 111.877L53.748 112.123L55.296 86.9949L51.3036 86.749ZM48.8358 88.8719H53.2998V84.8719H48.8358V88.8719ZM49.8976 106.766L50.8336 86.9664L46.8381 86.7775L45.9021 106.578L49.8976 106.766ZM44.8947 102.304L45.5982 106.97L49.5535 106.374L48.85 101.708L44.8947 102.304ZM43.4382 92.6421L44.8947 102.304L48.85 101.708L47.3935 92.0458L43.4382 92.6421ZM40.3735 106.97L42.5335 92.6421L38.5782 92.0458L36.4182 106.374L40.3735 106.97ZM35.8579 102.011L36.0739 106.763L40.0698 106.581L39.8538 101.829L35.8579 102.011ZM35.1381 86.9675L35.8581 102.016L39.8535 101.824L39.1335 86.7764L35.1381 86.9675ZM32.4918 88.8719H37.1358V84.8719H32.4918V88.8719ZM59.3338 110H53.8618V114H59.3338V110ZM55.7922 112.523L62.5962 87.3947L58.7353 86.3492L51.9313 111.477L55.7922 112.523ZM66.3673 87.3947L73.1713 112.523L77.0322 111.477L70.2282 86.3492L66.3673 87.3947ZM75.1018 110H69.3418V114H75.1018V110ZM81.4397 102.856V112H85.4397V102.856H81.4397ZM87.7237 100.856H83.4397V104.856H87.7237V100.856ZM78.0037 88.8719H87.7237V84.8719H78.0037V88.8719ZM80.0037 112V86.8719H76.0037V112H80.0037ZM83.4397 110H78.0037V114H83.4397V110ZM62.257 91.5931L59.809 101.097L63.6825 102.095L66.1305 92.5908L62.257 91.5931ZM68.8665 101.097L66.4185 91.5931L62.545 92.5908L64.993 102.095L68.8665 101.097ZM61.7458 103.596H66.9298V99.5959H61.7458V103.596ZM83.4397 100.5H86.3557V96.4999H83.4397V100.5ZM86.3557 89.2279H83.4397V93.2279H86.3557V89.2279ZM81.4397 91.2279V98.4999H85.4397V91.2279H81.4397Z" fill="#181818" mask="url(#path-19-outside-5_527_4959)"/>
<defs>
<linearGradient id="paint0_linear_527_4959" x1="0" y1="21.7049" x2="105.649" y2="21.7049" gradientUnits="userSpaceOnUse">
<stop stop-color="#E29C53"/>
<stop offset="1" stop-color="#CE4C7A"/>
</linearGradient>
<linearGradient id="paint1_linear_527_4959" x1="105.649" y1="79.4116" x2="0.0001297" y2="79.4116" gradientUnits="userSpaceOnUse">
<stop stop-color="#E29C53"/>
<stop offset="1" stop-color="#CE4C7A"/>
</linearGradient>
</defs>
</svg>
