<svg width="500" height="415" viewBox="0 0 500 415" fill="none" xmlns="http://www.w3.org/2000/svg">
<g opacity="0.7">
<mask id="mask0_510_13961" style="mask-type:alpha" maskUnits="userSpaceOnUse" x="0" y="0" width="500" height="415">
<rect width="500" height="415" rx="12" fill="#101116"/>
</mask>
<g mask="url(#mask0_510_13961)">
<path d="M426.714 242V464" stroke="#1B1B1B" stroke-width="2" stroke-miterlimit="10"/>
<path d="M458.43 242V464" stroke="#1B1B1B" stroke-width="2" stroke-miterlimit="10"/>
<path d="M490.144 242V464" stroke="#1B1B1B" stroke-width="2" stroke-miterlimit="10"/>
<path d="M617 273.714H395" stroke="#1B1B1B" stroke-width="2" stroke-miterlimit="10"/>
<path d="M617 305.428H395" stroke="#1B1B1B" stroke-width="2" stroke-miterlimit="10"/>
<path d="M617 337.143H395" stroke="#1B1B1B" stroke-width="2" stroke-miterlimit="10"/>
<path d="M617 368.857H395" stroke="#1B1B1B" stroke-width="2" stroke-miterlimit="10"/>
<path d="M617 400.572H395" stroke="#1B1B1B" stroke-width="2" stroke-miterlimit="10"/>
<path d="M46.7139 242V464" stroke="#1B1B1B" stroke-width="2" stroke-miterlimit="10"/>
<path d="M78.4297 242V464" stroke="#1B1B1B" stroke-width="2" stroke-miterlimit="10"/>
<path d="M110.144 242V464" stroke="#1B1B1B" stroke-width="2" stroke-miterlimit="10"/>
<path d="M141.857 242V464" stroke="#1B1B1B" stroke-width="2" stroke-miterlimit="10"/>
<path d="M173.571 242V464" stroke="#1B1B1B" stroke-width="2" stroke-miterlimit="10"/>
<path d="M205.285 242V464" stroke="#1B1B1B" stroke-width="2" stroke-miterlimit="10"/>
<path d="M237 273.714H15" stroke="#1B1B1B" stroke-width="2" stroke-miterlimit="10"/>
<path d="M237 305.428H15" stroke="#1B1B1B" stroke-width="2" stroke-miterlimit="10"/>
<path d="M237 337.143H15" stroke="#1B1B1B" stroke-width="2" stroke-miterlimit="10"/>
<path d="M237 368.857H15" stroke="#1B1B1B" stroke-width="2" stroke-miterlimit="10"/>
<path d="M237 400.572H15" stroke="#1B1B1B" stroke-width="2" stroke-miterlimit="10"/>
<path d="M237.714 242V464" stroke="#1B1B1B" stroke-width="2" stroke-miterlimit="10"/>
<path d="M269.43 242V464" stroke="#1B1B1B" stroke-width="2" stroke-miterlimit="10"/>
<path d="M301.144 242V464" stroke="#1B1B1B" stroke-width="2" stroke-miterlimit="10"/>
<path d="M332.857 242V464" stroke="#1B1B1B" stroke-width="2" stroke-miterlimit="10"/>
<path d="M364.571 242V464" stroke="#1B1B1B" stroke-width="2" stroke-miterlimit="10"/>
<path d="M396.285 242V464" stroke="#1B1B1B" stroke-width="2" stroke-miterlimit="10"/>
<path d="M428 273.714H206" stroke="#1B1B1B" stroke-width="2" stroke-miterlimit="10"/>
<path d="M428 305.428H206" stroke="#1B1B1B" stroke-width="2" stroke-miterlimit="10"/>
<path d="M428 337.143H206" stroke="#1B1B1B" stroke-width="2" stroke-miterlimit="10"/>
<path d="M428 368.857H206" stroke="#1B1B1B" stroke-width="2" stroke-miterlimit="10"/>
<path d="M428 400.572H206" stroke="#1B1B1B" stroke-width="2" stroke-miterlimit="10"/>
<path d="M426.714 -137V85" stroke="#1B1B1B" stroke-width="2" stroke-miterlimit="10"/>
<path d="M458.43 -137V85" stroke="#1B1B1B" stroke-width="2" stroke-miterlimit="10"/>
<path d="M490.144 -137V85" stroke="#1B1B1B" stroke-width="2" stroke-miterlimit="10"/>
<path d="M617 21.5715H395" stroke="#1B1B1B" stroke-width="2" stroke-miterlimit="10"/>
<path d="M617 53.2856H395" stroke="#1B1B1B" stroke-width="2" stroke-miterlimit="10"/>
<path d="M426.714 53V275" stroke="#1B1B1B" stroke-width="2" stroke-miterlimit="10"/>
<path d="M458.43 53V275" stroke="#1B1B1B" stroke-width="2" stroke-miterlimit="10"/>
<path d="M490.144 53V275" stroke="#1B1B1B" stroke-width="2" stroke-miterlimit="10"/>
<path d="M617 84.7144H395" stroke="#1B1B1B" stroke-width="2" stroke-miterlimit="10"/>
<path d="M617 116.428H395" stroke="#1B1B1B" stroke-width="2" stroke-miterlimit="10"/>
<path d="M617 148.143H395" stroke="#1B1B1B" stroke-width="2" stroke-miterlimit="10"/>
<path d="M617 179.857H395" stroke="#1B1B1B" stroke-width="2" stroke-miterlimit="10"/>
<path d="M617 211.572H395" stroke="#1B1B1B" stroke-width="2" stroke-miterlimit="10"/>
<path d="M617 243.286H395" stroke="#1B1B1B" stroke-width="2" stroke-miterlimit="10"/>
<path d="M46.7139 -137V85" stroke="#1B1B1B" stroke-width="2" stroke-miterlimit="10"/>
<path d="M78.4297 -137V85" stroke="#1B1B1B" stroke-width="2" stroke-miterlimit="10"/>
<path d="M110.144 -137V85" stroke="#1B1B1B" stroke-width="2" stroke-miterlimit="10"/>
<path d="M141.857 -137V85" stroke="#1B1B1B" stroke-width="2" stroke-miterlimit="10"/>
<path d="M173.571 -137V85" stroke="#1B1B1B" stroke-width="2" stroke-miterlimit="10"/>
<path d="M205.285 -137V85" stroke="#1B1B1B" stroke-width="2" stroke-miterlimit="10"/>
<path d="M237 21.5715H15" stroke="#1B1B1B" stroke-width="2" stroke-miterlimit="10"/>
<path d="M237 53.2856H15" stroke="#1B1B1B" stroke-width="2" stroke-miterlimit="10"/>
<path d="M46.7139 53V275" stroke="#1B1B1B" stroke-width="2" stroke-miterlimit="10"/>
<path d="M78.4297 53V275" stroke="#1B1B1B" stroke-width="2" stroke-miterlimit="10"/>
<path d="M110.144 53V275" stroke="#1B1B1B" stroke-width="2" stroke-miterlimit="10"/>
<path d="M141.857 53V275" stroke="#1B1B1B" stroke-width="2" stroke-miterlimit="10"/>
<path d="M173.571 53V275" stroke="#1B1B1B" stroke-width="2" stroke-miterlimit="10"/>
<path d="M205.285 53V275" stroke="#1B1B1B" stroke-width="2" stroke-miterlimit="10"/>
<path d="M237 84.7144H15" stroke="#1B1B1B" stroke-width="2" stroke-miterlimit="10"/>
<path d="M237 116.428H15" stroke="#1B1B1B" stroke-width="2" stroke-miterlimit="10"/>
<path d="M237 148.143H15" stroke="#1B1B1B" stroke-width="2" stroke-miterlimit="10"/>
<path d="M237 179.857H15" stroke="#1B1B1B" stroke-width="2" stroke-miterlimit="10"/>
<path d="M237 211.572H15" stroke="#1B1B1B" stroke-width="2" stroke-miterlimit="10"/>
<path d="M237 243.286H15" stroke="#1B1B1B" stroke-width="2" stroke-miterlimit="10"/>
<path d="M237.714 -137V85" stroke="#1B1B1B" stroke-width="2" stroke-miterlimit="10"/>
<path d="M269.43 -137V85" stroke="#1B1B1B" stroke-width="2" stroke-miterlimit="10"/>
<path d="M301.144 -137V85" stroke="#1B1B1B" stroke-width="2" stroke-miterlimit="10"/>
<path d="M332.857 -137V85" stroke="#1B1B1B" stroke-width="2" stroke-miterlimit="10"/>
<path d="M364.571 -137V85" stroke="#1B1B1B" stroke-width="2" stroke-miterlimit="10"/>
<path d="M396.285 -137V85" stroke="#1B1B1B" stroke-width="2" stroke-miterlimit="10"/>
<path d="M428 21.5715H206" stroke="#1B1B1B" stroke-width="2" stroke-miterlimit="10"/>
<path d="M428 53.2856H206" stroke="#1B1B1B" stroke-width="2" stroke-miterlimit="10"/>
<path d="M237.714 53V275" stroke="#1B1B1B" stroke-width="2" stroke-miterlimit="10"/>
<path d="M269.43 53V275" stroke="#1B1B1B" stroke-width="2" stroke-miterlimit="10"/>
<path d="M301.144 53V275" stroke="#1B1B1B" stroke-width="2" stroke-miterlimit="10"/>
<path d="M332.857 53V275" stroke="#1B1B1B" stroke-width="2" stroke-miterlimit="10"/>
<path d="M364.571 53V275" stroke="#1B1B1B" stroke-width="2" stroke-miterlimit="10"/>
<path d="M396.285 53V275" stroke="#1B1B1B" stroke-width="2" stroke-miterlimit="10"/>
<path d="M428 84.7144H206" stroke="#1B1B1B" stroke-width="2" stroke-miterlimit="10"/>
<path d="M428 116.428H206" stroke="#1B1B1B" stroke-width="2" stroke-miterlimit="10"/>
<path d="M428 148.143H206" stroke="#1B1B1B" stroke-width="2" stroke-miterlimit="10"/>
<path d="M428 179.857H206" stroke="#1B1B1B" stroke-width="2" stroke-miterlimit="10"/>
<path d="M428 211.572H206" stroke="#1B1B1B" stroke-width="2" stroke-miterlimit="10"/>
<path d="M428 243.286H206" stroke="#1B1B1B" stroke-width="2" stroke-miterlimit="10"/>
</g>
</g>
</svg>
