<svg width="607" height="207" viewBox="0 0 607 207" fill="none" xmlns="http://www.w3.org/2000/svg">
<path d="M99.9598 47.75L130.3 96.63L60.8898 92.64L30.5498 43.76L99.9598 47.75Z" fill="#181818" stroke="#1B1B1B" stroke-width="4"/>
<path d="M85.17 150.31L115.52 199.19L34.34 194.52L4 145.64L85.17 150.31Z" fill="#181818" stroke="#1B1B1B" stroke-width="4"/>
<path d="M441.881 -4.44009L472.221 44.4499C450.381 9.25993 410.631 -14.5501 360.091 -17.4201C342.318 -18.3865 324.498 -16.8549 307.151 -12.8701L276.811 -61.7501C294.158 -65.7349 311.978 -67.2665 329.751 -66.3001C380.281 -63.3901 420.081 -39.6201 441.881 -4.44009Z" fill="#181818" stroke="#1B1B1B" stroke-width="4"/>
<path d="M254.37 -55.3L284.71 -6.42004C278.6 -4.28004 272.57 -1.87005 266.71 0.819946L236.37 -48.0601C242.27 -50.7267 248.27 -53.14 254.37 -55.3Z" fill="#181818" stroke="#1B1B1B" stroke-width="4"/>
<path d="M236.33 -48.0601L266.67 0.819946C261.39 3.21995 256.207 5.82662 251.12 8.63995L220.78 -40.2401C225.847 -43.0534 231.03 -45.6601 236.33 -48.0601Z" fill="#181818" stroke="#1B1B1B" stroke-width="4"/>
<path d="M220.78 -40.2401L251.08 8.63989C246.24 11.3066 241.51 14.1665 236.89 17.2199L206.55 -31.6601C211.163 -34.7001 215.893 -37.5601 220.74 -40.2401" fill="#181818"/>
<path d="M220.78 -40.2401L251.08 8.63989C246.24 11.3066 241.51 14.1665 236.89 17.2199L206.55 -31.6601C211.163 -34.7001 215.893 -37.5601 220.74 -40.2401" stroke="#1B1B1B" stroke-width="4"/>
<path d="M206.591 -31.6602L236.931 17.2198C232.391 20.1998 227.964 23.3432 223.651 26.6498L193.311 -22.2301C197.611 -25.5635 202.037 -28.7068 206.591 -31.6602Z" fill="#181818" stroke="#1B1B1B" stroke-width="4"/>
<path d="M193.31 -22.23L223.65 26.65C219.303 29.9833 215.09 33.4767 211.01 37.13L180.67 -11.75C184.743 -15.39 188.957 -18.8833 193.31 -22.23Z" fill="#181818" stroke="#1B1B1B" stroke-width="4"/>
<path d="M180.67 -11.75L211.01 37.13C206.763 40.9433 202.68 44.9067 198.76 49.02L168.42 0.130005C172.333 -3.98333 176.417 -7.94333 180.67 -11.75Z" fill="#181818" stroke="#1B1B1B" stroke-width="4"/>
<path d="M168.42 0.129883L198.76 49.0199C194.433 53.5599 190.33 58.2799 186.45 63.1799L156.08 14.2999C159.96 9.40656 164.067 4.68322 168.4 0.129883" fill="#181818"/>
<path d="M168.42 0.129883L198.76 49.0199C194.433 53.5599 190.33 58.2799 186.45 63.1799L156.08 14.2999C159.96 9.40656 164.067 4.68322 168.4 0.129883" stroke="#1B1B1B" stroke-width="4"/>
<path d="M156.08 14.2998L186.43 63.1798C181.895 68.8988 177.685 74.8682 173.82 81.0598L143.5 32.1798C147.359 25.9911 151.558 20.0219 156.08 14.2998Z" fill="#181818" stroke="#1B1B1B" stroke-width="4"/>
<path d="M143.5 32.1799L173.84 81.0599C167.404 91.3359 162.02 102.234 157.77 113.59L127.43 64.7099C131.674 53.3516 137.058 42.4526 143.5 32.1799Z" fill="#181818"/>
<path d="M143.5 32.1799L173.84 81.0599C167.404 91.3359 162.02 102.234 157.77 113.59L127.43 64.7099C131.674 53.3516 137.058 42.4526 143.5 32.1799" stroke="#1B1B1B" stroke-width="4"/>
<path d="M127.43 64.71L157.77 113.59C155.799 118.884 154.097 124.274 152.67 129.74C151.084 135.794 149.865 141.939 149.02 148.14L118.68 99.26C119.524 93.0586 120.743 86.914 122.33 80.86C123.753 75.3931 125.455 70.0026 127.43 64.71Z" fill="#181818"/>
<path d="M127.43 64.71L157.77 113.59C155.799 118.884 154.097 124.274 152.67 129.74C151.084 135.794 149.865 141.939 149.02 148.14L118.68 99.26C119.524 93.0586 120.743 86.914 122.33 80.86C123.753 75.3931 125.455 70.0026 127.43 64.71" stroke="#1B1B1B" stroke-width="4"/>
<path d="M118.68 99.26L149.02 148.14C147.486 159.22 147.288 170.443 148.43 181.57L118.08 132.68C116.938 121.557 117.136 110.336 118.67 99.26" fill="#181818"/>
<path d="M118.68 99.26L149.02 148.14C147.486 159.22 147.288 170.443 148.43 181.57L118.08 132.68C116.938 121.557 117.136 110.336 118.67 99.26" stroke="#1B1B1B" stroke-width="4"/>
<path d="M118.08 132.68L148.42 181.57C149.085 187.922 150.222 194.216 151.82 200.4L121.48 151.52C119.882 145.333 118.745 139.035 118.08 132.68Z" fill="#181818"/>
<path d="M118.08 132.68L148.42 181.57C149.085 187.922 150.222 194.216 151.82 200.4L121.48 151.52C119.882 145.333 118.745 139.035 118.08 132.68" stroke="#1B1B1B" stroke-width="4"/>
<path d="M121.49 151.52L151.83 200.4C153.153 205.5 154.799 210.51 156.76 215.4L126.42 166.52C124.461 161.629 122.814 156.619 121.49 151.52Z" fill="#181818" stroke="#1B1B1B" stroke-width="4"/>
<path d="M126.42 166.5L156.76 215.38C158.508 219.767 160.511 224.048 162.76 228.2L132.42 179.32C130.171 175.168 128.168 170.887 126.42 166.5Z" fill="#181818"/>
<path d="M126.42 166.5L156.76 215.38C158.508 219.767 160.511 224.048 162.76 228.2L132.42 179.32C130.171 175.168 128.168 170.887 126.42 166.5" stroke="#1B1B1B" stroke-width="4"/>
<path d="M132.45 179.32L162.79 228.2C163.904 230.2 165.067 232.2 166.28 234.2L135.94 185.31C134.72 183.31 133.55 181.31 132.45 179.31" fill="#181818"/>
<path d="M132.45 179.32L162.79 228.2C163.904 230.2 165.067 232.2 166.28 234.2L135.94 185.31C134.72 183.31 133.55 181.31 132.45 179.31" stroke="#1B1B1B" stroke-width="4"/>
<path d="M334.8 61.98L365.14 110.88C365.513 111.467 365.863 112.067 366.19 112.68L335.85 63.78C335.523 63.16 335.19 62.56 334.85 61.98" fill="#181818"/>
<path d="M334.8 61.98L365.14 110.88C365.513 111.467 365.863 112.067 366.19 112.68L335.85 63.78C335.523 63.16 335.19 62.56 334.85 61.98" stroke="#1B1B1B" stroke-width="4"/>
<path d="M335.85 63.78L366.19 112.66C366.869 113.903 367.474 115.185 368 116.5L337.66 67.62C337.129 66.3068 336.525 65.0247 335.85 63.78Z" fill="#181818"/>
<path d="M335.85 63.78L366.19 112.66C366.869 113.903 367.474 115.185 368 116.5L337.66 67.62C337.129 66.3068 336.525 65.0247 335.85 63.78" stroke="#1B1B1B" stroke-width="4"/>
<path d="M337.659 67.6199L367.999 116.5C368.584 117.965 369.078 119.464 369.479 120.99L339.129 72.1099C338.734 70.5838 338.243 69.0841 337.659 67.6199Z" fill="#181818"/>
<path d="M337.659 67.6199L367.999 116.5C368.584 117.965 369.078 119.464 369.479 120.99L339.129 72.1099C338.734 70.5838 338.243 69.0841 337.659 67.6199" stroke="#1B1B1B" stroke-width="4"/>
<path d="M339.13 72.1099L369.48 120.99C369.948 122.85 370.282 124.742 370.48 126.65L340.14 77.7599C339.946 75.8544 339.612 73.966 339.14 72.1099" fill="#181818"/>
<path d="M339.13 72.1099L369.48 120.99C369.948 122.85 370.282 124.742 370.48 126.65L340.14 77.7599C339.946 75.8544 339.612 73.966 339.14 72.1099" stroke="#1B1B1B" stroke-width="4"/>
<path d="M340.159 77.76L370.499 126.65C370.841 129.979 370.781 133.336 370.319 136.65L339.979 87.79C340.435 84.4755 340.495 81.1187 340.159 77.79" fill="#181818"/>
<path d="M340.159 77.76L370.499 126.65C370.841 129.978 370.781 133.336 370.319 136.65L339.979 87.79C340.435 84.4755 340.495 81.1187 340.159 77.79" stroke="#1B1B1B" stroke-width="4"/>
<path d="M339.98 87.79L370.32 136.67C370.064 138.534 369.697 140.38 369.22 142.2C368.798 143.839 368.29 145.454 367.7 147.04L337.35 98.1601C337.944 96.5712 338.454 94.9523 338.88 93.3101C339.358 91.494 339.725 89.6506 339.98 87.79Z" fill="#181818"/>
<path d="M339.98 87.79L370.32 136.67C370.064 138.534 369.697 140.38 369.22 142.2C368.798 143.839 368.29 145.454 367.7 147.04L337.35 98.1601C337.944 96.5712 338.454 94.9523 338.88 93.3101C339.358 91.494 339.725 89.6506 339.98 87.79" stroke="#1B1B1B" stroke-width="4"/>
<path d="M337.349 98.1599L367.699 147.04C366.422 150.448 364.804 153.718 362.869 156.8L332.529 107.88C334.459 104.796 336.074 101.526 337.349 98.1199" fill="#181818"/>
<path d="M337.349 98.1599L367.699 147.04C366.422 150.448 364.804 153.718 362.869 156.8L332.529 107.88C334.459 104.796 336.074 101.526 337.349 98.1199" stroke="#1B1B1B" stroke-width="4"/>
<path d="M332.529 107.88L362.869 156.76C361.714 158.618 360.452 160.408 359.089 162.12L328.749 113.28C330.109 111.566 331.371 109.776 332.529 107.92" fill="#181818"/>
<path d="M332.529 107.88L362.869 156.76C361.714 158.618 360.452 160.408 359.089 162.12L328.749 113.28C330.109 111.566 331.371 109.776 332.529 107.92" stroke="#1B1B1B" stroke-width="4"/>
<path d="M328.749 113.28L359.079 162.16C357.919 163.633 356.689 165.05 355.389 166.41L325.079 117.53C326.379 116.197 327.609 114.78 328.769 113.28" fill="#181818"/>
<path d="M328.749 113.28L359.079 162.16C357.919 163.633 356.689 165.05 355.389 166.41L325.079 117.53C326.379 116.197 327.609 114.78 328.769 113.28" stroke="#1B1B1B" stroke-width="4"/>
<path d="M325.08 117.53L355.42 166.41C354.24 167.65 353.02 168.84 351.74 169.98L321.38 121.1C322.66 119.95 323.88 118.77 325.06 117.53" fill="#181818"/>
<path d="M325.08 117.53L355.42 166.41C354.24 167.65 353.02 168.84 351.74 169.98L321.38 121.1C322.66 119.95 323.88 118.77 325.06 117.53" stroke="#1B1B1B" stroke-width="4"/>
<path d="M321.38 121.1L351.72 169.98C350.5 171.073 349.236 172.12 347.93 173.12L317.59 124.24C318.89 123.24 320.16 122.19 321.38 121.1Z" fill="#181818" stroke="#1B1B1B" stroke-width="4"/>
<path d="M317.59 124.24L347.93 173.12C346.64 174.12 345.31 175.06 343.93 175.95L313.59 127.07C314.95 126.18 316.28 125.23 317.59 124.24Z" fill="#181818" stroke="#1B1B1B" stroke-width="4"/>
<path d="M313.61 127.07L343.95 175.95C342.563 176.857 341.143 177.713 339.69 178.52L309.35 129.64C310.803 128.84 312.223 127.983 313.61 127.07Z" fill="#181818"/>
<path d="M313.61 127.07L343.95 175.95C342.563 176.857 341.143 177.713 339.69 178.52L309.35 129.64C310.803 128.84 312.223 127.983 313.61 127.07" stroke="#1B1B1B" stroke-width="4"/>
<path d="M309.35 129.64L339.69 178.52C338.17 179.37 336.61 180.15 335.03 180.87L304.68 131.99C306.266 131.27 307.823 130.487 309.35 129.64Z" fill="#181818"/>
<path d="M309.35 129.64L339.69 178.52C338.17 179.37 336.61 180.15 335.03 180.87L304.68 131.99C306.266 131.27 307.823 130.487 309.35 129.64" stroke="#1B1B1B" stroke-width="4"/>
<path d="M304.679 131.99L335.079 180.88C333.306 181.687 331.499 182.41 329.659 183.05L299.319 134.17C301.159 133.53 302.959 132.8 304.729 132" fill="#181818"/>
<path d="M304.679 131.99L335.079 180.88C333.306 181.687 331.499 182.41 329.659 183.05L299.319 134.17C301.159 133.53 302.959 132.8 304.729 132" stroke="#1B1B1B" stroke-width="4"/>
<path d="M299.269 134.16L329.609 183.04C327.404 183.812 325.157 184.46 322.879 184.98L292.539 136.1C294.817 135.578 297.063 134.931 299.269 134.16Z" fill="#181818"/>
<path d="M299.269 134.16L329.609 183.04C327.404 183.812 325.157 184.46 322.879 184.98L292.539 136.1C294.817 135.578 297.063 134.931 299.269 134.16" stroke="#1B1B1B" stroke-width="4"/>
<path d="M292.54 136.1L322.88 184.98C317.676 186.176 312.33 186.634 307 186.34C291.84 185.47 279.91 178.34 273.36 167.78L243.02 118.88C249.57 129.44 261.5 136.57 276.66 137.44C281.99 137.734 287.336 137.276 292.54 136.08" fill="#181818"/>
<path d="M292.54 136.1L322.88 184.98C317.676 186.176 312.33 186.634 307 186.34C291.84 185.47 279.91 178.34 273.36 167.78L243.02 118.88C249.57 129.44 261.5 136.57 276.66 137.44C281.99 137.734 287.336 137.276 292.54 136.08" stroke="#1B1B1B" stroke-width="4"/>
<path d="M472.46 -23.4102L502.8 25.4698C504.26 27.8198 505.65 30.2198 506.98 32.6498L476.63 -16.2301C475.297 -18.6701 473.907 -21.0635 472.46 -23.4102Z" fill="#181818" stroke="#1B1B1B" stroke-width="4"/>
<path d="M476.63 -16.2302L506.98 32.6497C509.688 37.6324 512.105 42.7676 514.22 48.0298L483.87 -0.85025C481.76 -6.11418 479.342 -11.2497 476.63 -16.2302Z" fill="#181818"/>
<path d="M476.63 -16.2302L506.98 32.6497C509.688 37.6324 512.105 42.7676 514.22 48.0298L483.87 -0.85025C481.76 -6.11418 479.342 -11.2497 476.63 -16.2302" stroke="#1B1B1B" stroke-width="4"/>
<path d="M483.87 -0.850159L514.22 48.0298C516.571 53.898 518.545 59.9102 520.13 66.0298L489.78 17.1099C488.2 10.9889 486.226 4.97639 483.87 -0.890137" fill="#181818"/>
<path d="M483.87 -0.850159L514.22 48.0298C516.571 53.898 518.545 59.9102 520.13 66.0298L489.78 17.1099C488.2 10.9889 486.226 4.97639 483.87 -0.890137" stroke="#1B1B1B" stroke-width="4"/>
<path d="M489.78 17.1099L520.13 65.9898C521.27 70.3998 522.23 74.8899 522.98 79.4499L492.64 30.5699C491.894 26.0032 490.94 21.5165 489.78 17.1099Z" fill="#181818" stroke="#1B1B1B" stroke-width="4"/>
<path d="M494.19 70.4299L524.53 119.31C524.31 122.05 524.03 124.8 523.67 127.57L493.33 78.6799C493.683 75.9199 493.97 73.1699 494.19 70.4299Z" fill="#181818" stroke="#1B1B1B" stroke-width="4"/>
<path d="M493.33 78.6799L523.67 127.57C522.657 135.408 521.148 143.174 519.15 150.82C517.359 157.677 515.203 164.433 512.69 171.06L482.35 122.18C484.863 115.554 487.016 108.798 488.8 101.94C490.805 94.2913 492.318 86.5221 493.33 78.6799Z" fill="#181818"/>
<path d="M493.33 78.6799L523.67 127.57C522.657 135.408 521.148 143.174 519.15 150.82C517.359 157.677 515.203 164.433 512.69 171.06L482.35 122.18C484.863 115.554 487.016 108.798 488.8 101.94C490.805 94.2913 492.318 86.5221 493.33 78.6799" stroke="#1B1B1B" stroke-width="4"/>
<path d="M482.35 122.18L512.69 171.06C511.303 174.753 509.806 178.42 508.2 182.06L477.85 133.18C479.456 129.573 480.956 125.907 482.35 122.18Z" fill="#181818" stroke="#1B1B1B" stroke-width="4"/>
<path d="M573.82 35.2399L563.61 74.42L494.19 70.42C493.317 81.0606 491.514 91.6043 488.8 101.93C485.987 112.608 482.308 123.04 477.8 133.12L547.22 137.12L537.08 176.3L455.9 171.63C408.28 238.85 323.8 283.35 239.9 278.52C156 273.69 96.8998 220.94 85.1898 150.31L4.00977 145.64L14.2198 106.45L83.6298 110.45C84.5119 99.8105 86.3154 89.2677 89.0198 78.9399C91.8193 68.2639 95.4813 57.833 99.9698 47.7499L30.5598 43.7499L40.7698 4.56994L121.95 9.22994C169.57 -57.9801 254.05 -102.48 337.95 -97.6501C421.85 -92.8201 480.95 -40.0701 492.67 30.5599L573.82 35.2399ZM248.08 247.17C340.08 252.47 432.95 186.59 455.51 100.02C478.07 13.45 421.78 -60.9801 329.77 -66.3001C237.76 -71.6201 144.89 -5.71005 122.33 80.8799C99.7698 167.47 156.08 241.88 248.08 247.17Z" fill="#181818" stroke="#1B1B1B" stroke-width="4"/>
<path d="M312.21 127.947C337.549 112.218 347.66 82.6653 334.794 61.9394C321.929 41.2134 290.958 37.1626 265.62 52.8915C240.281 68.6203 230.17 98.1727 243.036 118.899C255.901 139.625 286.872 143.675 312.21 127.947Z" fill="#181818" stroke="#1B1B1B" stroke-width="4"/>
<path d="M563.61 74.4199L593.95 123.31L524.53 119.31L494.19 70.4299L563.61 74.4199Z" fill="#181818" stroke="#1B1B1B" stroke-width="4"/>
<path d="M573.82 35.24L604.16 84.12L593.95 123.31L563.61 74.42L573.82 35.24Z" fill="#181818" stroke="#1B1B1B" stroke-width="4"/>
<path d="M455.881 171.63L486.221 220.52C483.741 224.02 481.164 227.457 478.491 230.83L448.141 181.95C450.807 178.57 453.387 175.13 455.881 171.63Z" fill="#181818"/>
<path d="M455.881 171.63L486.221 220.52C483.741 224.02 481.164 227.457 478.491 230.83L448.141 181.95C450.807 178.57 453.387 175.13 455.881 171.63" stroke="#1B1B1B" stroke-width="4"/>
<path d="M448.141 181.95L478.491 230.88C473.877 236.687 468.997 242.297 463.851 247.71L433.511 198.78C438.651 193.38 443.527 187.77 448.141 181.95Z" fill="#181818"/>
<path d="M448.141 181.95L478.491 230.88C473.877 236.687 468.997 242.297 463.851 247.71L433.511 198.78C438.651 193.38 443.527 187.77 448.141 181.95" stroke="#1B1B1B" stroke-width="4"/>
<path d="M433.51 198.78L463.85 247.66C459.184 252.6 454.277 257.36 449.13 261.94L418.78 213.06C423.887 208.493 428.797 203.733 433.51 198.78Z" fill="#181818"/>
<path d="M433.51 198.78L463.85 247.66C459.184 252.6 454.277 257.36 449.13 261.94L418.78 213.06C423.887 208.493 428.797 203.733 433.51 198.78" stroke="#1B1B1B" stroke-width="4"/>
<path d="M303.53 273.04L333.87 321.88C313.022 326.683 291.602 328.528 270.24 327.36C209.61 323.88 161.91 295.36 135.7 253.13L105.36 204.25C131.56 246.47 179.27 274.99 239.89 278.48C261.256 279.649 282.679 277.804 303.53 273" fill="#181818"/>
<path d="M303.53 273.04L333.87 321.88C313.022 326.683 291.602 328.528 270.24 327.36C209.61 323.88 161.91 295.36 135.7 253.13L105.36 204.25C131.56 246.47 179.27 274.99 239.89 278.48C261.256 279.649 282.679 277.804 303.53 273" stroke="#1B1B1B" stroke-width="4"/>
<path d="M537.06 176.3L567.4 225.19L486.22 220.52L455.88 171.63L537.06 176.3Z" fill="#181818" stroke="#1B1B1B" stroke-width="4"/>
<path d="M547.27 137.12L577.61 186L567.4 225.19L537.06 176.3L547.27 137.12Z" fill="#181818" stroke="#1B1B1B" stroke-width="4"/>
</svg>
