<svg width="215" height="31" viewBox="0 0 215 31" fill="none" xmlns="http://www.w3.org/2000/svg">
<path fill-rule="evenodd" clip-rule="evenodd" d="M0.382812 29.9999V0.871943H9.81881V21.5719H20.6188V29.9999H0.382812ZM7.81881 23.5719V2.87194H2.38281V27.9999H18.6188V23.5719H7.81881ZM21.5368 29.9999V0.871943H41.5928V9.29994H30.9368V11.0599H41.2327V19.4879H30.9368V21.5719H41.5928V29.9999H21.5368ZM28.9368 23.5719V17.4879H39.2327V13.0599H28.9368V7.29994H39.5928V2.87194H23.5368V27.9999H39.5928V23.5719H28.9368ZM56.5224 22.4359C56.4121 22.6346 56.2842 22.8213 56.1387 22.9959C55.8575 23.3334 55.5077 23.5918 55.0894 23.7711C54.9884 23.8144 54.8834 23.8531 54.7744 23.8871C54.3717 24.013 53.9145 24.0759 53.4027 24.0759C51.8427 24.0759 50.7507 23.4639 50.1267 22.2399C49.5267 21.0159 49.2267 19.3839 49.2267 17.3439V13.2399C49.2267 11.1999 49.5027 9.61594 50.0547 8.48794C50.6307 7.35994 51.6027 6.79594 52.9707 6.79594C53.5947 6.79594 54.1227 6.91594 54.5547 7.15594C54.9867 7.37194 55.3467 7.67194 55.6347 8.05594C55.9227 8.43994 56.1507 8.88394 56.3187 9.38794C56.5107 9.86793 56.6787 10.3719 56.8227 10.8999C56.8227 10.8999 56.8227 10.8999 56.8227 10.8999L61.8627 9.67594C61.6978 9.00159 61.4956 8.36467 61.2559 7.76517C61.1117 7.40455 60.954 7.05748 60.7827 6.72394L62.5618 5.81033C63.0969 6.8524 63.5084 7.98589 63.8055 9.20104L64.2811 11.1467L58.4127 12.5719H63.8627V20.8867L69.2822 0.871943H79.9751L87.8622 29.9999H77.945L76.361 23.9519H72.5812L71.0332 29.9999H55.0387V29.4547C54.6515 29.6669 54.2427 29.8457 53.8162 29.994C52.963 30.2993 52.0474 30.4319 51.0987 30.4319C49.5471 30.4319 48.0932 30.0626 46.7937 29.2829L46.7841 29.2771L46.7745 29.2713C45.5171 28.4975 44.5081 27.3999 43.7219 26.0603C42.9406 24.7293 42.3836 23.1722 42.0142 21.431L42.0112 21.4167L42.0084 21.4025C41.6663 19.6657 41.5027 17.7449 41.5027 15.6519C41.5027 11.1859 42.3096 7.45527 44.195 4.72636C46.1994 1.79988 49.294 0.439941 53.0787 0.439941C54.5475 0.439941 55.9214 0.642389 57.1654 1.09422C58.3707 1.5086 59.4453 2.12782 60.3552 2.96776C61.2652 3.76251 62.0002 4.7166 62.5618 5.81033L60.7827 6.72394C60.3267 5.83594 59.7387 5.07994 59.0187 4.45594C58.3227 3.80794 57.4827 3.31594 56.4987 2.97994C55.5147 2.61994 54.3747 2.43994 53.0787 2.43994C49.8147 2.43994 47.4027 3.57994 45.8427 5.85994C44.2827 8.11594 43.5027 11.3799 43.5027 15.6519C43.5027 17.6439 43.6587 19.4319 43.9707 21.0159C44.3067 22.5999 44.7987 23.9439 45.4467 25.0479C46.0947 26.1519 46.8867 26.9919 47.8227 27.5679C48.7827 28.1439 49.8747 28.4319 51.0987 28.4319C51.8667 28.4319 52.5507 28.3239 53.1507 28.1079C53.7747 27.8919 54.3147 27.6039 54.7707 27.2439C54.863 27.1662 54.9523 27.0866 55.0387 27.0049C55.3792 26.6831 55.6738 26.3308 55.9227 25.9479C56.0301 25.7827 56.1318 25.6147 56.2278 25.4437C56.4107 25.1181 56.573 24.7822 56.7147 24.4359H57.0387V27.9999H61.8627V14.5719H52.7547V18.3879H57.0387V20.2239C57.0387 20.2791 57.038 20.3338 57.0365 20.3879C57.0158 21.173 56.8444 21.8557 56.5224 22.4359ZM55.0355 20.3879H51.5654C51.665 20.7551 51.7831 21.0725 51.9151 21.3445C52.0641 21.6317 52.2261 21.7796 52.3915 21.8723C52.5738 21.9744 52.8819 22.0759 53.4027 22.0759C54.2279 22.0759 54.4914 21.8486 54.6022 21.7156C54.8268 21.4461 55.0096 21.048 55.0355 20.3879ZM51.2382 12.5719H55.2056L54.8932 11.4262C54.768 10.9674 54.6238 10.536 54.4617 10.1307L54.4399 10.0762L54.4213 10.0204C54.3141 9.69871 54.1807 9.45064 54.0347 9.25594C53.9342 9.12194 53.8163 9.02284 53.6603 8.9448L53.6214 8.92536L53.5834 8.90426C53.5167 8.86721 53.3424 8.79594 52.9707 8.79594C52.5629 8.79594 52.3406 8.87851 52.2194 8.94882C52.1091 9.01283 51.9768 9.12695 51.8432 9.38329C51.5313 10.0296 51.2923 11.0549 51.2382 12.5719ZM71.0286 21.9519H77.9046L79.4886 27.9999H85.2486L78.4446 2.87194H70.8126L64.0086 27.9999H69.4806L71.0286 21.9519ZM74.3406 8.09194H74.6286L77.0766 17.5959H71.8926L74.3406 8.09194ZM74.4846 15.551L74.4731 15.5959H74.4962L74.4846 15.551ZM87.6751 26.2104L87.6682 26.2006C85.7331 23.4569 84.8906 19.7889 84.8906 15.4359C84.8906 11.085 85.7323 7.42316 87.6739 4.69911L87.6763 4.69584C89.761 1.78335 92.9305 0.439941 96.7906 0.439941C98.2566 0.439941 99.6281 0.64162 100.87 1.09165C102.087 1.50087 103.179 2.09996 104.112 2.90856C104.986 3.6657 105.699 4.56877 106.254 5.60052L103.937 0.871943H114.442L117.662 7.9212L117.909 8.54726L118.155 7.9212L121.375 0.871943H131.664L122.501 19.5716V29.9999H113.1V19.5716L106.813 6.74029C107.15 7.51747 107.42 8.34244 107.628 9.2108L108.091 11.1491L99.1658 13.3167L98.6978 11.3667C98.571 10.8384 98.4271 10.3695 98.2696 9.95593C98.15 9.64201 98.0111 9.41923 97.8712 9.2578L97.8454 9.22806L97.8208 9.19733C97.7562 9.11661 97.6623 9.03558 97.4904 8.96321L97.4304 8.93793L97.3721 8.9088C97.2868 8.86614 97.0837 8.79594 96.6826 8.79594C96.2122 8.79594 95.9336 8.88756 95.7677 8.9791C95.6148 9.06344 95.46 9.20033 95.3127 9.46994C94.9323 10.1892 94.6506 11.3867 94.6506 13.2399V17.6319C94.6506 19.4679 94.927 20.6828 95.3122 21.4365C95.5292 21.8183 95.8417 22.0759 96.6826 22.0759C97.5124 22.0759 97.697 21.8422 97.7585 21.7567L97.7704 21.7402L97.7826 21.7239C98.1462 21.239 98.4701 20.5384 98.6893 19.5422L99.1284 17.5461L108.091 19.7228L107.628 21.6611C107.33 22.9065 106.903 24.0626 106.336 25.1165C105.774 26.2061 105.041 27.1637 104.14 27.9745L104.127 27.9871L104.112 27.9993C103.174 28.8124 102.076 29.4136 100.85 29.8229C99.6158 30.2434 98.2518 30.4319 96.7906 30.4319C92.9387 30.4319 89.7702 29.1066 87.6821 26.2202L87.6751 26.2104ZM104.567 24.1839C104.752 23.8409 104.921 23.4817 105.075 23.1064C105.306 22.5397 105.5 21.9363 105.658 21.2961C105.666 21.2628 105.675 21.2294 105.683 21.1959L100.643 19.9719C100.643 19.972 100.643 19.9719 100.643 19.9719C100.608 20.1298 100.57 20.284 100.53 20.4344C100.265 21.4271 99.8828 22.257 99.3826 22.9239C98.8306 23.6919 97.9306 24.0759 96.6826 24.0759C95.2186 24.0759 94.1746 23.5119 93.5506 22.3839C92.9506 21.2319 92.6506 19.6479 92.6506 17.6319V13.2399C92.6506 11.2239 92.9506 9.65194 93.5506 8.52394C94.1746 7.37194 95.2186 6.79594 96.6826 6.79594C97.3066 6.79594 97.8346 6.90394 98.2666 7.11994C98.7226 7.31194 99.0946 7.58794 99.3826 7.94794C99.6946 8.30794 99.9466 8.73994 100.139 9.24394C100.321 9.72407 100.483 10.2478 100.622 10.815C100.629 10.8432 100.636 10.8715 100.643 10.8999L105.683 9.67594C105.675 9.64246 105.666 9.60908 105.658 9.57579C105.5 8.9356 105.306 8.33216 105.075 7.76548C104.921 7.39018 104.752 7.031 104.567 6.68794C104.111 5.79994 103.523 5.04394 102.803 4.41994C102.083 3.79594 101.219 3.31594 100.211 2.97994C99.2266 2.61994 98.0866 2.43994 96.7906 2.43994C93.4306 2.43994 90.9346 3.57994 89.3026 5.85994C87.6946 8.11594 86.8906 11.3079 86.8906 15.4359C86.8906 19.5639 87.6946 22.7679 89.3026 25.0479C90.9346 27.3039 93.4306 28.4319 96.7906 28.4319C98.0866 28.4319 99.2266 28.2639 100.211 27.9279C101.219 27.5919 102.083 27.1119 102.803 26.4879C103.523 25.8399 104.111 25.0719 104.567 24.1839ZM115.1 19.1079V27.9999H120.501V19.1079L128.456 2.87194H122.661L119.997 8.70394L118.053 13.6359H117.764L115.82 8.70394L113.156 2.87194H107.145L115.1 19.1079ZM150.476 0.871943H160.576C164.414 0.871943 167.592 2.12204 169.696 4.90627C171.692 7.54829 172.548 11.1511 172.548 15.4359C172.548 19.7208 171.692 23.3236 169.696 25.9656C167.592 28.7499 164.414 29.9999 160.576 29.9999H150.476V0.871943ZM160.216 21.7519C161.37 21.7519 161.852 21.4086 162.122 21.0343C162.519 20.4833 162.86 19.4667 162.86 17.7039V13.1319C162.86 11.3996 162.522 10.392 162.122 9.83755C161.852 9.46329 161.37 9.11994 160.216 9.11994H159.804V21.7519H160.216ZM160.216 23.7519C161.824 23.7519 163 23.2359 163.744 22.2039C164.488 21.1719 164.86 19.6719 164.86 17.7039V13.1319C164.86 11.1879 164.488 9.69994 163.744 8.66794C163 7.63594 161.824 7.11994 160.216 7.11994H157.804V23.7519H160.216ZM172.638 29.9999V0.871943H192.694V9.29994H182.038V11.0599H192.334V19.4879H182.038V21.5719H192.694V29.9999H172.638ZM180.038 23.5719V17.4879H190.334V13.0599H180.038V7.29994H190.694V2.87194H174.638V27.9999H190.694V23.5719H180.038ZM194.044 29.9999V22.0039H199.444V8.86794H194.044V0.871943H214.244V8.86794H208.844V22.0039H214.244V29.9999H194.044ZM206.844 24.0039V6.86794H212.244V2.87194H196.044V6.86794H201.444V24.0039H196.044V27.9999H212.244V24.0039H206.844ZM152.476 2.87194V27.9999H160.576C163.96 27.9999 166.468 26.9199 168.1 24.7599C169.732 22.5999 170.548 19.4919 170.548 15.4359C170.548 11.3799 169.732 8.27194 168.1 6.11194C166.468 3.95194 163.96 2.87194 160.576 2.87194H152.476Z" fill="white"/>
</svg>
