<svg width="77" height="23" viewBox="0 0 77 23" fill="none" xmlns="http://www.w3.org/2000/svg">
  <path
    d="M0 1.08603C0 0.960439 0.0839614 0.876709 0.209904 0.876709H7.24167C9.3617 0.876709 11.1879 1.31629 12.6992 2.19545C14.2105 3.07461 15.3649 4.30963 16.1626 5.90049C16.9602 7.49136 17.359 9.35434 17.359 11.4895C17.359 13.6874 16.9602 15.5922 16.1626 17.1831C15.3649 18.7739 14.2105 20.009 12.6782 20.8463C11.1669 21.6835 9.3617 22.1231 7.26266 22.1231H0.209904C0.0839614 22.1231 0 22.0394 0 21.9138V1.08603ZM6.94781 19.7578C8.33317 19.7578 9.50863 19.5694 10.5162 19.1717C11.5027 18.7739 12.2584 18.2297 12.7411 17.518C13.2659 16.7435 13.6647 15.9062 13.8956 14.9642C14.1265 14.0432 14.2525 12.871 14.2525 11.4895C14.2525 10.1079 14.1265 8.97756 13.8746 8.05653C13.6227 7.13551 13.2449 6.29821 12.7202 5.54464C12.1954 4.81201 11.4397 4.24683 10.4532 3.84911C9.44566 3.4514 8.2702 3.24207 6.94781 3.24207H2.93865C2.81271 3.24207 2.72875 3.3258 2.72875 3.4514V19.5484C2.72875 19.674 2.81271 19.7578 2.93865 19.7578H6.94781Z"
    fill="black"
  />
  <path
    d="M20.9485 0.876709H35.6207C35.7467 0.876709 35.8306 0.960439 35.8306 1.08603V3.11648C35.8306 3.24207 35.7467 3.3258 35.6207 3.3258H23.6772C23.5513 3.3258 23.4673 3.40953 23.4673 3.53513V8.07747C23.4673 8.20306 23.5513 8.28679 23.6772 8.28679H34.4872C34.6132 8.28679 34.6971 8.37052 34.6971 8.49612V10.5266C34.6971 10.6522 34.6132 10.7359 34.4872 10.7359H23.4673H20.9485C20.8225 10.7359 20.7386 10.6522 20.7386 10.5266V1.08603C20.7386 0.960439 20.8225 0.876709 20.9485 0.876709Z"
    fill="black"
  />
  <path
    d="M20.7386 12.8502C20.7386 12.7246 20.8225 12.6409 20.9485 12.6409H23.4673H34.4872C34.6132 12.6409 34.6971 12.7246 34.6971 12.8502V14.8806C34.6971 15.0062 34.6132 15.09 34.4872 15.09H23.6772C23.5513 15.09 23.4673 15.1737 23.4673 15.2993V19.4648C23.4673 19.5904 23.5513 19.6742 23.6772 19.6742H35.6207C35.7467 19.6742 35.8306 19.7579 35.8306 19.8835V21.9139C35.8306 22.0395 35.7467 22.1233 35.6207 22.1233H20.9485C20.8225 22.1233 20.7386 22.0395 20.7386 21.9139V12.8502Z"
    fill="black"
  />
  <path
    d="M41.351 20.5951C39.9237 19.3391 39.231 17.4971 39.231 15.1108V1.08603C39.231 0.960439 39.3149 0.876709 39.4409 0.876709H41.7708C41.8968 0.876709 41.9807 0.960439 41.9807 1.08603V15.1108C41.9807 16.1783 42.2326 17.0993 42.7364 17.8529C43.2401 18.6065 43.9118 19.1507 44.7515 19.5275C45.5911 19.8834 46.5146 20.0718 47.5432 20.0718C48.5507 20.0718 49.4743 19.8834 50.3349 19.5275C51.1745 19.1717 51.8672 18.6065 52.371 17.8529C52.8747 17.0993 53.1266 16.1992 53.1266 15.1108V1.08603C53.1266 0.960439 53.2106 0.876709 53.3365 0.876709H55.6874C55.8134 0.876709 55.8973 0.960439 55.8973 1.08603V15.1108C55.8973 17.4971 55.1837 19.3182 53.7563 20.5951C52.329 21.8719 50.2719 22.4999 47.5642 22.4999C44.8564 22.4999 42.7574 21.8719 41.351 20.5951Z"
    fill="black"
  />
  <path
    d="M63.181 21.6836C61.8586 21.1394 60.7881 20.323 59.9905 19.2345C59.2348 18.1879 58.836 16.911 58.794 15.4039C58.794 15.2992 58.878 15.1946 58.9829 15.1946L61.4808 14.9434C61.6067 14.9224 61.7117 15.0271 61.7117 15.1527C61.7537 16.1575 61.9846 17.0366 62.4673 17.7693C62.9711 18.5647 63.6638 19.1717 64.5244 19.5694C65.406 19.9881 66.3925 20.1974 67.505 20.1974C69.2472 20.1974 70.6536 19.8834 71.7241 19.2555C72.7946 18.6275 73.3194 17.6018 73.3194 16.1575C73.3194 15.4248 73.0885 14.8387 72.6477 14.4201C72.2069 14.0014 71.6401 13.6874 70.9894 13.4781C70.3177 13.2897 69.4361 13.0804 68.3027 12.892C67.4211 12.7245 66.7914 12.5989 66.3506 12.5152C64.9652 12.1803 63.7897 11.8244 62.8032 11.4058C61.8376 10.9872 61.019 10.3801 60.3683 9.58468C59.7176 8.78924 59.3818 7.76356 59.3818 6.48668C59.3818 5.12607 59.7596 3.99572 60.4943 3.09562C61.2289 2.19553 62.1735 1.54662 63.328 1.12797C64.4824 0.709324 65.6789 0.5 66.9173 0.5C69.3102 0.5 71.2833 1.04424 72.7946 2.1118C74.2849 3.15842 75.1455 4.81208 75.3974 7.07278C75.4184 7.17745 75.3344 7.28211 75.2295 7.30304L72.7946 7.72169C72.6687 7.74262 72.5637 7.65889 72.5427 7.5333C72.5007 6.57041 72.2489 5.75404 71.829 5.06327C71.3673 4.3097 70.7166 3.74453 69.8769 3.34681C69.0373 2.9491 68.0298 2.7607 66.8543 2.7607C66.1197 2.7607 65.385 2.8863 64.6713 3.15842C63.9577 3.43054 63.3699 3.82826 62.8872 4.3725C62.4464 4.89581 62.2155 5.52378 62.1945 6.25642C62.1735 7.00999 62.5093 7.74262 63.0971 8.22407C63.6638 8.68458 64.3775 9.04043 65.2381 9.29162C66.1197 9.54281 67.1272 9.77307 68.3237 9.96146C70.0868 10.2336 71.4932 10.5476 72.5427 10.9034C73.6132 11.2593 74.4738 11.8244 75.1455 12.5989C75.8172 13.3944 76.174 14.4829 76.174 15.9063C76.174 17.5181 75.7752 18.8159 74.9566 19.7997C74.138 20.7626 73.0885 21.4534 71.8081 21.872C70.5276 22.2697 69.1213 22.4791 67.61 22.4791C65.9937 22.5 64.5244 22.2279 63.181 21.6836Z"
    fill="black"
  />
</svg>
