<svg width="304" height="304" viewBox="0 0 304 304" fill="none" xmlns="http://www.w3.org/2000/svg">
<rect width="304" height="304" fill="#101116"/>
<path fill-rule="evenodd" clip-rule="evenodd" d="M148 63C118.038 63 91.3837 77.1706 74.375 99.1752V63H55V156C55 207.361 96.639 249 148 249C187.028 249 220.443 224.957 234.239 190.875H272V171.5H239.714C240.56 166.459 241 161.281 241 156C241 150.719 240.56 145.541 239.714 140.5H272V121.125H234.239C220.443 87.043 187.028 63 148 63ZM148 233.5C132.672 233.5 117.688 228.955 104.943 220.439C92.1985 211.923 82.2651 199.819 76.3993 185.658C70.5335 171.497 68.9988 155.914 71.9891 140.88C74.9795 125.847 82.3606 112.038 93.1992 101.199C104.038 90.3606 117.847 82.9795 132.88 79.9891C147.914 76.9988 163.497 78.5335 177.658 84.3993C191.819 90.2651 203.923 100.198 212.439 112.943C220.955 125.688 225.5 140.672 225.5 156C225.5 176.554 217.335 196.267 202.801 210.801C188.267 225.335 168.554 233.5 148 233.5ZM148 179.25C160.841 179.25 171.25 168.841 171.25 156C171.25 143.159 160.841 132.75 148 132.75C135.159 132.75 124.75 143.159 124.75 156C124.75 168.841 135.159 179.25 148 179.25Z" fill="url(#paint0_linear_101_468)"/>
<path fill-rule="evenodd" clip-rule="evenodd" d="M148 63C118.038 63 91.3837 77.1706 74.375 99.1752V63H55V156C55 207.361 96.639 249 148 249C187.028 249 220.443 224.957 234.239 190.875H272V171.5H239.714C240.56 166.459 241 161.281 241 156C241 150.719 240.56 145.541 239.714 140.5H272V121.125H234.239C220.443 87.043 187.028 63 148 63ZM148 233.5C132.672 233.5 117.688 228.955 104.943 220.439C92.1985 211.923 82.2651 199.819 76.3993 185.658C70.5335 171.497 68.9988 155.914 71.9891 140.88C74.9795 125.847 82.3606 112.038 93.1992 101.199C104.038 90.3606 117.847 82.9795 132.88 79.9891C147.914 76.9988 163.497 78.5335 177.658 84.3993C191.819 90.2651 203.923 100.198 212.439 112.943C220.955 125.688 225.5 140.672 225.5 156C225.5 176.554 217.335 196.267 202.801 210.801C188.267 225.335 168.554 233.5 148 233.5ZM148 179.25C160.841 179.25 171.25 168.841 171.25 156C171.25 143.159 160.841 132.75 148 132.75C135.159 132.75 124.75 143.159 124.75 156C124.75 168.841 135.159 179.25 148 179.25Z" fill="url(#paint1_linear_101_468)"/>
<defs>
<linearGradient id="paint0_linear_101_468" x1="55" y1="156.001" x2="272" y2="156.001" gradientUnits="userSpaceOnUse">
<stop stop-color="#DBFFB7"/>
<stop offset="1" stop-color="#9BC3FF"/>
</linearGradient>
<linearGradient id="paint1_linear_101_468" x1="55" y1="156.001" x2="272" y2="156.001" gradientUnits="userSpaceOnUse">
<stop stop-color="#FFA7D1"/>
<stop offset="1" stop-color="#FFE99C"/>
</linearGradient>
</defs>
</svg>
