<svg width="304" height="304" viewBox="0 0 304 304" fill="none" xmlns="http://www.w3.org/2000/svg">
<rect width="304" height="304" fill="#101116"/>
<path d="M174.786 155.4C174.786 169.98 162.985 181.8 148.429 181.8C133.872 181.8 122.071 169.98 122.071 155.4C122.071 140.82 133.872 129 148.429 129C162.985 129 174.786 140.82 174.786 155.4Z" fill="url(#paint0_linear_101_468)"/>
<path fill-rule="evenodd" clip-rule="evenodd" d="M239.746 102.6H289V137.8H252.393C254.345 149.452 254.345 161.348 252.393 173H289V208.2H239.746C230.496 224.259 217.186 237.594 201.155 246.863C185.124 256.132 166.939 261.008 148.429 261C90.2037 261 43 213.72 43 155.4V41H78.1429V76.6889C89.8274 66.2187 103.696 58.4904 118.739 54.0669C133.782 49.6435 149.621 48.6361 165.102 51.1183C180.583 53.6005 195.316 59.5096 208.229 68.4155C221.141 77.3213 231.909 88.9996 239.746 102.6ZM109.38 213.935C120.938 221.671 134.527 225.8 148.429 225.8C167.069 225.8 184.947 218.383 198.128 205.18C211.309 191.978 218.714 174.071 218.714 155.4C218.714 141.476 214.592 127.865 206.869 116.288C199.146 104.711 188.169 95.6873 175.326 90.3589C162.483 85.0305 148.351 83.6363 134.717 86.3527C121.082 89.0691 108.559 95.7741 98.7291 105.62C88.8994 115.465 82.2054 128.009 79.4934 141.666C76.7814 155.322 78.1733 169.477 83.493 182.341C88.8128 195.205 97.8215 206.2 109.38 213.935Z" fill="url(#paint1_linear_101_468)"/>
<defs>
<linearGradient id="paint0_linear_101_468" x1="43" y1="151.002" x2="289" y2="151.002" gradientUnits="userSpaceOnUse">
<stop stop-color="#FFA7D1"/>
<stop offset="1" stop-color="#FFE99C"/>
</linearGradient>
<linearGradient id="paint1_linear_101_468" x1="43" y1="151.002" x2="289" y2="151.002" gradientUnits="userSpaceOnUse">
<stop stop-color="#FFA7D1"/>
<stop offset="1" stop-color="#FFE99C"/>
</linearGradient>
</defs>
</svg>
